<?xml version="1.0" encoding="utf-8" standalone="no"?>
<!DOCTYPE svg PUBLIC "-//W3C//DTD SVG 1.1//EN"
  "http://www.w3.org/Graphics/SVG/1.1/DTD/svg11.dtd">
<svg xmlns:xlink="http://www.w3.org/1999/xlink" width="864pt" height="576pt" viewBox="0 0 864 576" xmlns="http://www.w3.org/2000/svg" version="1.1">
 <metadata>
  <rdf:RDF xmlns:dc="http://purl.org/dc/elements/1.1/" xmlns:cc="http://creativecommons.org/ns#" xmlns:rdf="http://www.w3.org/1999/02/22-rdf-syntax-ns#">
   <cc:Work>
    <dc:type rdf:resource="http://purl.org/dc/dcmitype/StillImage"/>
    <dc:date>2025-03-30T22:49:58.680394</dc:date>
    <dc:format>image/svg+xml</dc:format>
    <dc:creator>
     <cc:Agent>
      <dc:title>Matplotlib v3.8.4, https://matplotlib.org/</dc:title>
     </cc:Agent>
    </dc:creator>
   </cc:Work>
  </rdf:RDF>
 </metadata>
 <defs>
  <style type="text/css">*{stroke-linejoin: round; stroke-linecap: butt}</style>
 </defs>
 <g id="figure_1">
  <g id="patch_1">
   <path d="M 0 576 
L 864 576 
L 864 0 
L 0 0 
z
" style="fill: #ffffff"/>
  </g>
  <g id="axes_1">
   <g id="patch_2">
    <path d="M 62.84 369.507896 
L 848.88 369.507896 
L 848.88 34.08 
L 62.84 34.08 
z
" style="fill: #ffffff"/>
   </g>
   <g id="PathCollection_1">
    <path d="M 101.020447 350.827221 
L 98.020447 356.827221 
L 104.020447 356.827221 
z
" clip-path="url(#p1715200d81)" style="stroke: #ffffff; stroke-width: 0.48"/>
    <path d="M 107.483921 335.430344 
C 108.27953 335.430344 109.04266 335.114245 109.605241 334.551665 
C 110.167822 333.989084 110.483921 333.225954 110.483921 332.430344 
C 110.483921 331.634735 110.167822 330.871605 109.605241 330.309024 
C 109.04266 329.746443 108.27953 329.430344 107.483921 329.430344 
C 106.688311 329.430344 105.925181 329.746443 105.3626 330.309024 
C 104.80002 330.871605 104.483921 331.634735 104.483921 332.430344 
C 104.483921 333.225954 104.80002 333.989084 105.3626 334.551665 
C 105.925181 335.114245 106.688311 335.430344 107.483921 335.430344 
z
" clip-path="url(#p1715200d81)" style="stroke: #ffffff; stroke-width: 0.48"/>
    <path d="M 102.030334 354.408786 
L 108.030334 354.408786 
L 108.030334 348.408786 
L 102.030334 348.408786 
z
" clip-path="url(#p1715200d81)" style="stroke: #ffffff; stroke-width: 0.48"/>
    <path d="M 103.534588 342.889113 
L 106.080172 338.646472 
L 103.534588 334.403831 
L 100.989003 338.646472 
z
" clip-path="url(#p1715200d81)" style="stroke: #ffffff; stroke-width: 0.48"/>
    <path d="M 97.069091 329.881257 
L 98.569091 328.381257 
L 100.069091 329.881257 
L 101.569091 328.381257 
L 100.069091 326.881257 
L 101.569091 325.381257 
L 100.069091 323.881257 
L 98.569091 325.381257 
L 97.069091 323.881257 
L 95.569091 325.381257 
L 97.069091 326.881257 
L 95.569091 328.381257 
z
" clip-path="url(#p1715200d81)" style="stroke: #ffffff; stroke-width: 0.48"/>
    <path d="M 135.961876 349.230548 
L 132.961876 355.230548 
L 138.961876 355.230548 
z
" clip-path="url(#p1715200d81)" style="stroke: #ffffff; stroke-width: 0.48"/>
    <path d="M 134.863519 329.782006 
C 135.659128 329.782006 136.422259 329.465907 136.984839 328.903326 
C 137.54742 328.340745 137.863519 327.577615 137.863519 326.782006 
C 137.863519 325.986396 137.54742 325.223266 136.984839 324.660685 
C 136.422259 324.098105 135.659128 323.782006 134.863519 323.782006 
C 134.06791 323.782006 133.30478 324.098105 132.742199 324.660685 
C 132.179618 325.223266 131.863519 325.986396 131.863519 326.782006 
C 131.863519 327.577615 132.179618 328.340745 132.742199 328.903326 
C 133.30478 329.465907 134.06791 329.782006 134.863519 329.782006 
z
" clip-path="url(#p1715200d81)" style="stroke: #ffffff; stroke-width: 0.48"/>
    <path d="M 140.928634 352.537861 
L 146.928634 352.537861 
L 146.928634 346.537861 
L 140.928634 346.537861 
z
" clip-path="url(#p1715200d81)" style="stroke: #ffffff; stroke-width: 0.48"/>
    <path d="M 140.9552 343.436735 
L 143.500784 339.194094 
L 140.9552 334.951453 
L 138.409616 339.194094 
z
" clip-path="url(#p1715200d81)" style="stroke: #ffffff; stroke-width: 0.48"/>
    <path d="M 140.655041 296.911683 
L 142.155041 295.411683 
L 143.655041 296.911683 
L 145.155041 295.411683 
L 143.655041 293.911683 
L 145.155041 292.411683 
L 143.655041 290.911683 
L 142.155041 292.411683 
L 140.655041 290.911683 
L 139.155041 292.411683 
L 140.655041 293.911683 
L 139.155041 295.411683 
z
" clip-path="url(#p1715200d81)" style="stroke: #ffffff; stroke-width: 0.48"/>
    <path d="M 171.835912 336.667253 
L 168.835912 342.667253 
L 174.835912 342.667253 
z
" clip-path="url(#p1715200d81)" style="stroke: #ffffff; stroke-width: 0.48"/>
    <path d="M 182.485365 303.827889 
C 183.280974 303.827889 184.044105 303.51179 184.606685 302.949209 
C 185.169266 302.386629 185.485365 301.623498 185.485365 300.827889 
C 185.485365 300.03228 185.169266 299.269149 184.606685 298.706569 
C 184.044105 298.143988 183.280974 297.827889 182.485365 297.827889 
C 181.689756 297.827889 180.926625 298.143988 180.364045 298.706569 
C 179.801464 299.269149 179.485365 300.03228 179.485365 300.827889 
C 179.485365 301.623498 179.801464 302.386629 180.364045 302.949209 
C 180.926625 303.51179 181.689756 303.827889 182.485365 303.827889 
z
" clip-path="url(#p1715200d81)" style="stroke: #ffffff; stroke-width: 0.48"/>
    <path d="M 177.943269 346.895391 
L 183.943269 346.895391 
L 183.943269 340.895391 
L 177.943269 340.895391 
z
" clip-path="url(#p1715200d81)" style="stroke: #ffffff; stroke-width: 0.48"/>
    <path d="M 173.987 317.627069 
L 176.532584 313.384428 
L 173.987 309.141787 
L 171.441415 313.384428 
z
" clip-path="url(#p1715200d81)" style="stroke: #ffffff; stroke-width: 0.48"/>
    <path d="M 172.144695 269.480059 
L 173.644695 267.980059 
L 175.144695 269.480059 
L 176.644695 267.980059 
L 175.144695 266.480059 
L 176.644695 264.980059 
L 175.144695 263.480059 
L 173.644695 264.980059 
L 172.144695 263.480059 
L 170.644695 264.980059 
L 172.144695 266.480059 
L 170.644695 267.980059 
z
" clip-path="url(#p1715200d81)" style="stroke: #ffffff; stroke-width: 0.48"/>
    <path d="M 211.055469 344.566582 
L 208.055469 350.566582 
L 214.055469 350.566582 
z
" clip-path="url(#p1715200d81)" style="stroke: #ffffff; stroke-width: 0.48"/>
    <path d="M 212.411017 347.263614 
C 213.206626 347.263614 213.969756 346.947515 214.532337 346.384934 
C 215.094918 345.822354 215.411017 345.059223 215.411017 344.263614 
C 215.411017 343.468005 215.094918 342.704875 214.532337 342.142294 
C 213.969756 341.579713 213.206626 341.263614 212.411017 341.263614 
C 211.615407 341.263614 210.852277 341.579713 210.289696 342.142294 
C 209.727115 342.704875 209.411017 343.468005 209.411017 344.263614 
C 209.411017 345.059223 209.727115 345.822354 210.289696 346.384934 
C 210.852277 346.947515 211.615407 347.263614 212.411017 347.263614 
z
" clip-path="url(#p1715200d81)" style="stroke: #ffffff; stroke-width: 0.48"/>
    <path d="M 211.884726 350.399662 
L 217.884726 350.399662 
L 217.884726 344.399662 
L 211.884726 344.399662 
z
" clip-path="url(#p1715200d81)" style="stroke: #ffffff; stroke-width: 0.48"/>
    <path d="M 213.843576 349.841532 
L 216.38916 345.598891 
L 213.843576 341.356251 
L 211.297991 345.598891 
z
" clip-path="url(#p1715200d81)" style="stroke: #ffffff; stroke-width: 0.48"/>
    <path d="M 210.765037 347.527606 
L 212.265037 346.027606 
L 213.765037 347.527606 
L 215.265037 346.027606 
L 213.765037 344.527606 
L 215.265037 343.027606 
L 213.765037 341.527606 
L 212.265037 343.027606 
L 210.765037 341.527606 
L 209.265037 343.027606 
L 210.765037 344.527606 
L 209.265037 346.027606 
z
" clip-path="url(#p1715200d81)" style="stroke: #ffffff; stroke-width: 0.48"/>
    <path d="M 253.254822 292.254537 
L 250.254822 298.254537 
L 256.254822 298.254537 
z
" clip-path="url(#p1715200d81)" style="stroke: #ffffff; stroke-width: 0.48"/>
    <path d="M 247.955938 338.508689 
C 248.751547 338.508689 249.514678 338.19259 250.077258 337.630009 
C 250.639839 337.067429 250.955938 336.304298 250.955938 335.508689 
C 250.955938 334.71308 250.639839 333.949949 250.077258 333.387369 
C 249.514678 332.824788 248.751547 332.508689 247.955938 332.508689 
C 247.160329 332.508689 246.397199 332.824788 245.834618 333.387369 
C 245.272037 333.949949 244.955938 334.71308 244.955938 335.508689 
C 244.955938 336.304298 245.272037 337.067429 245.834618 337.630009 
C 246.397199 338.19259 247.160329 338.508689 247.955938 338.508689 
z
" clip-path="url(#p1715200d81)" style="stroke: #ffffff; stroke-width: 0.48"/>
    <path d="M 246.668362 305.616265 
L 252.668362 305.616265 
L 252.668362 299.616265 
L 246.668362 299.616265 
z
" clip-path="url(#p1715200d81)" style="stroke: #ffffff; stroke-width: 0.48"/>
    <path d="M 250.500924 334.055731 
L 253.046509 329.81309 
L 250.500924 325.570449 
L 247.95534 329.81309 
z
" clip-path="url(#p1715200d81)" style="stroke: #ffffff; stroke-width: 0.48"/>
    <path d="M 250.007263 329.130349 
L 251.507263 327.630349 
L 253.007263 329.130349 
L 254.507263 327.630349 
L 253.007263 326.130349 
L 254.507263 324.630349 
L 253.007263 323.130349 
L 251.507263 324.630349 
L 250.007263 323.130349 
L 248.507263 324.630349 
L 250.007263 326.130349 
L 248.507263 327.630349 
z
" clip-path="url(#p1715200d81)" style="stroke: #ffffff; stroke-width: 0.48"/>
    <path d="M 292.592201 337.759714 
L 289.592201 343.759714 
L 295.592201 343.759714 
z
" clip-path="url(#p1715200d81)" style="stroke: #ffffff; stroke-width: 0.48"/>
    <path d="M 286.024087 352.714261 
C 286.819696 352.714261 287.582826 352.398162 288.145407 351.835581 
C 288.707988 351.273001 289.024087 350.50987 289.024087 349.714261 
C 289.024087 348.918652 288.707988 348.155521 288.145407 347.592941 
C 287.582826 347.03036 286.819696 346.714261 286.024087 346.714261 
C 285.228477 346.714261 284.465347 347.03036 283.902766 347.592941 
C 283.340186 348.155521 283.024087 348.918652 283.024087 349.714261 
C 283.024087 350.50987 283.340186 351.273001 283.902766 351.835581 
C 284.465347 352.398162 285.228477 352.714261 286.024087 352.714261 
z
" clip-path="url(#p1715200d81)" style="stroke: #ffffff; stroke-width: 0.48"/>
    <path d="M 286.552802 343.747486 
L 292.552802 343.747486 
L 292.552802 337.747486 
L 286.552802 337.747486 
z
" clip-path="url(#p1715200d81)" style="stroke: #ffffff; stroke-width: 0.48"/>
    <path d="M 290.42982 347.341518 
L 292.975404 343.098878 
L 290.42982 338.856237 
L 287.884236 343.098878 
z
" clip-path="url(#p1715200d81)" style="stroke: #ffffff; stroke-width: 0.48"/>
    <path d="M 282.80524 341.942724 
L 284.30524 340.442724 
L 285.80524 341.942724 
L 287.30524 340.442724 
L 285.80524 338.942724 
L 287.30524 337.442724 
L 285.80524 335.942724 
L 284.30524 337.442724 
L 282.80524 335.942724 
L 281.30524 337.442724 
L 282.80524 338.942724 
L 281.30524 340.442724 
z
" clip-path="url(#p1715200d81)" style="stroke: #ffffff; stroke-width: 0.48"/>
    <path d="M 327.992606 222.042949 
L 324.992606 228.042949 
L 330.992606 228.042949 
z
" clip-path="url(#p1715200d81)" style="stroke: #ffffff; stroke-width: 0.48"/>
    <path d="M 323.090143 253.218774 
C 323.885753 253.218774 324.648883 252.902675 325.211464 252.340094 
C 325.774045 251.777513 326.090143 251.014383 326.090143 250.218774 
C 326.090143 249.423164 325.774045 248.660034 325.211464 248.097453 
C 324.648883 247.534872 323.885753 247.218774 323.090143 247.218774 
C 322.294534 247.218774 321.531404 247.534872 320.968823 248.097453 
C 320.406242 248.660034 320.090143 249.423164 320.090143 250.218774 
C 320.090143 251.014383 320.406242 251.777513 320.968823 252.340094 
C 321.531404 252.902675 322.294534 253.218774 323.090143 253.218774 
z
" clip-path="url(#p1715200d81)" style="stroke: #ffffff; stroke-width: 0.48"/>
    <path d="M 318.906961 229.294429 
L 324.906961 229.294429 
L 324.906961 223.294429 
L 318.906961 223.294429 
z
" clip-path="url(#p1715200d81)" style="stroke: #ffffff; stroke-width: 0.48"/>
    <path d="M 331.821737 278.364948 
L 334.367321 274.122307 
L 331.821737 269.879666 
L 329.276152 274.122307 
z
" clip-path="url(#p1715200d81)" style="stroke: #ffffff; stroke-width: 0.48"/>
    <path d="M 330.509598 241.203663 
L 332.009598 239.703663 
L 333.509598 241.203663 
L 335.009598 239.703663 
L 333.509598 238.203663 
L 335.009598 236.703663 
L 333.509598 235.203663 
L 332.009598 236.703663 
L 330.509598 235.203663 
L 329.009598 236.703663 
L 330.509598 238.203663 
L 329.009598 239.703663 
z
" clip-path="url(#p1715200d81)" style="stroke: #ffffff; stroke-width: 0.48"/>
    <path d="M 367.638807 342.507715 
L 364.638807 348.507715 
L 370.638807 348.507715 
z
" clip-path="url(#p1715200d81)" style="stroke: #ffffff; stroke-width: 0.48"/>
    <path d="M 361.987405 339.130006 
C 362.783014 339.130006 363.546145 338.813907 364.108725 338.251327 
C 364.671306 337.688746 364.987405 336.925616 364.987405 336.130006 
C 364.987405 335.334397 364.671306 334.571267 364.108725 334.008686 
C 363.546145 333.446105 362.783014 333.130006 361.987405 333.130006 
C 361.191796 333.130006 360.428666 333.446105 359.866085 334.008686 
C 359.303504 334.571267 358.987405 335.334397 358.987405 336.130006 
C 358.987405 336.925616 359.303504 337.688746 359.866085 338.251327 
C 360.428666 338.813907 361.191796 339.130006 361.987405 339.130006 
z
" clip-path="url(#p1715200d81)" style="stroke: #ffffff; stroke-width: 0.48"/>
    <path d="M 356.665951 344.757192 
L 362.665951 344.757192 
L 362.665951 338.757192 
L 356.665951 338.757192 
z
" clip-path="url(#p1715200d81)" style="stroke: #ffffff; stroke-width: 0.48"/>
    <path d="M 366.245942 336.293838 
L 368.791527 332.051198 
L 366.245942 327.808557 
L 363.700358 332.051198 
z
" clip-path="url(#p1715200d81)" style="stroke: #ffffff; stroke-width: 0.48"/>
    <path d="M 362.007867 334.058185 
L 363.507867 332.558185 
L 365.007867 334.058185 
L 366.507867 332.558185 
L 365.007867 331.058185 
L 366.507867 329.558185 
L 365.007867 328.058185 
L 363.507867 329.558185 
L 362.007867 328.058185 
L 360.507867 329.558185 
L 362.007867 331.058185 
L 360.507867 332.558185 
z
" clip-path="url(#p1715200d81)" style="stroke: #ffffff; stroke-width: 0.48"/>
    <path d="M 397.332343 222.589179 
L 394.332343 228.589179 
L 400.332343 228.589179 
z
" clip-path="url(#p1715200d81)" style="stroke: #ffffff; stroke-width: 0.48"/>
    <path d="M 401.518182 319.756204 
C 402.313791 319.756204 403.076921 319.440105 403.639502 318.877525 
C 404.202083 318.314944 404.518182 317.551814 404.518182 316.756204 
C 404.518182 315.960595 404.202083 315.197465 403.639502 314.634884 
C 403.076921 314.072303 402.313791 313.756204 401.518182 313.756204 
C 400.722572 313.756204 399.959442 314.072303 399.396861 314.634884 
C 398.834281 315.197465 398.518182 315.960595 398.518182 316.756204 
C 398.518182 317.551814 398.834281 318.314944 399.396861 318.877525 
C 399.959442 319.440105 400.722572 319.756204 401.518182 319.756204 
z
" clip-path="url(#p1715200d81)" style="stroke: #ffffff; stroke-width: 0.48"/>
    <path d="M 393.349096 282.779109 
L 399.349096 282.779109 
L 399.349096 276.779109 
L 393.349096 276.779109 
z
" clip-path="url(#p1715200d81)" style="stroke: #ffffff; stroke-width: 0.48"/>
    <path d="M 406.164009 308.507971 
L 408.709593 304.26533 
L 406.164009 300.02269 
L 403.618424 304.26533 
z
" clip-path="url(#p1715200d81)" style="stroke: #ffffff; stroke-width: 0.48"/>
    <path d="M 397.366301 312.328772 
L 398.866301 310.828772 
L 400.366301 312.328772 
L 401.866301 310.828772 
L 400.366301 309.328772 
L 401.866301 307.828772 
L 400.366301 306.328772 
L 398.866301 307.828772 
L 397.366301 306.328772 
L 395.866301 307.828772 
L 397.366301 309.328772 
L 395.866301 310.828772 
z
" clip-path="url(#p1715200d81)" style="stroke: #ffffff; stroke-width: 0.48"/>
    <path d="M 440.788503 349.440636 
L 437.788503 355.440636 
L 443.788503 355.440636 
z
" clip-path="url(#p1715200d81)" style="stroke: #ffffff; stroke-width: 0.48"/>
    <path d="M 436.853133 353.53327 
C 437.648742 353.53327 438.411872 353.217171 438.974453 352.654591 
C 439.537034 352.09201 439.853133 351.328879 439.853133 350.53327 
C 439.853133 349.737661 439.537034 348.974531 438.974453 348.41195 
C 438.411872 347.849369 437.648742 347.53327 436.853133 347.53327 
C 436.057523 347.53327 435.294393 347.849369 434.731812 348.41195 
C 434.169231 348.974531 433.853133 349.737661 433.853133 350.53327 
C 433.853133 351.328879 434.169231 352.09201 434.731812 352.654591 
C 435.294393 353.217171 436.057523 353.53327 436.853133 353.53327 
z
" clip-path="url(#p1715200d81)" style="stroke: #ffffff; stroke-width: 0.48"/>
    <path d="M 436.190463 355.566977 
L 442.190463 355.566977 
L 442.190463 349.566977 
L 436.190463 349.566977 
z
" clip-path="url(#p1715200d81)" style="stroke: #ffffff; stroke-width: 0.48"/>
    <path d="M 439.489334 355.151085 
L 442.034918 350.908444 
L 439.489334 346.665804 
L 436.94375 350.908444 
z
" clip-path="url(#p1715200d81)" style="stroke: #ffffff; stroke-width: 0.48"/>
    <path d="M 433.930066 355.107088 
L 435.430066 353.607088 
L 436.930066 355.107088 
L 438.430066 353.607088 
L 436.930066 352.107088 
L 438.430066 350.607088 
L 436.930066 349.107088 
L 435.430066 350.607088 
L 433.930066 349.107088 
L 432.430066 350.607088 
L 433.930066 352.107088 
L 432.430066 353.607088 
z
" clip-path="url(#p1715200d81)" style="stroke: #ffffff; stroke-width: 0.48"/>
    <path d="M 481.626158 67.627875 
L 478.626158 73.627875 
L 484.626158 73.627875 
z
" clip-path="url(#p1715200d81)" style="stroke: #ffffff; stroke-width: 0.48"/>
    <path d="M 479.444814 145.081328 
C 480.240424 145.081328 481.003554 144.765229 481.566135 144.202648 
C 482.128715 143.640067 482.444814 142.876937 482.444814 142.081328 
C 482.444814 141.285718 482.128715 140.522588 481.566135 139.960007 
C 481.003554 139.397427 480.240424 139.081328 479.444814 139.081328 
C 478.649205 139.081328 477.886075 139.397427 477.323494 139.960007 
C 476.760913 140.522588 476.444814 141.285718 476.444814 142.081328 
C 476.444814 142.876937 476.760913 143.640067 477.323494 144.202648 
C 477.886075 144.765229 478.649205 145.081328 479.444814 145.081328 
z
" clip-path="url(#p1715200d81)" style="stroke: #ffffff; stroke-width: 0.48"/>
    <path d="M 478.28866 160.931445 
L 484.28866 160.931445 
L 484.28866 154.931445 
L 478.28866 154.931445 
z
" clip-path="url(#p1715200d81)" style="stroke: #ffffff; stroke-width: 0.48"/>
    <path d="M 480.787537 138.840369 
L 483.333122 134.597729 
L 480.787537 130.355088 
L 478.241953 134.597729 
z
" clip-path="url(#p1715200d81)" style="stroke: #ffffff; stroke-width: 0.48"/>
    <path d="M 475.956631 52.326723 
L 477.456631 50.826723 
L 478.956631 52.326723 
L 480.456631 50.826723 
L 478.956631 49.326723 
L 480.456631 47.826723 
L 478.956631 46.326723 
L 477.456631 47.826723 
L 475.956631 46.326723 
L 474.456631 47.826723 
L 475.956631 49.326723 
L 474.456631 50.826723 
z
" clip-path="url(#p1715200d81)" style="stroke: #ffffff; stroke-width: 0.48"/>
    <path d="M 518.484002 313.977692 
L 515.484002 319.977692 
L 521.484002 319.977692 
z
" clip-path="url(#p1715200d81)" style="stroke: #ffffff; stroke-width: 0.48"/>
    <path d="M 509.135196 327.69212 
C 509.930805 327.69212 510.693935 327.376021 511.256516 326.813441 
C 511.819097 326.25086 512.135196 325.48773 512.135196 324.69212 
C 512.135196 323.896511 511.819097 323.133381 511.256516 322.5708 
C 510.693935 322.008219 509.930805 321.69212 509.135196 321.69212 
C 508.339586 321.69212 507.576456 322.008219 507.013875 322.5708 
C 506.451295 323.133381 506.135196 323.896511 506.135196 324.69212 
C 506.135196 325.48773 506.451295 326.25086 507.013875 326.813441 
C 507.576456 327.376021 508.339586 327.69212 509.135196 327.69212 
z
" clip-path="url(#p1715200d81)" style="stroke: #ffffff; stroke-width: 0.48"/>
    <path d="M 507.341014 309.714481 
L 513.341014 309.714481 
L 513.341014 303.714481 
L 507.341014 303.714481 
z
" clip-path="url(#p1715200d81)" style="stroke: #ffffff; stroke-width: 0.48"/>
    <path d="M 508.64985 347.960569 
L 511.195435 343.717929 
L 508.64985 339.475288 
L 506.104266 343.717929 
z
" clip-path="url(#p1715200d81)" style="stroke: #ffffff; stroke-width: 0.48"/>
    <path d="M 510.292023 334.081651 
L 511.792023 332.581651 
L 513.292023 334.081651 
L 514.792023 332.581651 
L 513.292023 331.081651 
L 514.792023 329.581651 
L 513.292023 328.081651 
L 511.792023 329.581651 
L 510.292023 328.081651 
L 508.792023 329.581651 
L 510.292023 331.081651 
L 508.792023 332.581651 
z
" clip-path="url(#p1715200d81)" style="stroke: #ffffff; stroke-width: 0.48"/>
    <path d="M 549.895699 268.682603 
L 546.895699 274.682603 
L 552.895699 274.682603 
z
" clip-path="url(#p1715200d81)" style="stroke: #ffffff; stroke-width: 0.48"/>
    <path d="M 548.57952 251.750205 
C 549.375129 251.750205 550.13826 251.434107 550.70084 250.871526 
C 551.263421 250.308945 551.57952 249.545815 551.57952 248.750205 
C 551.57952 247.954596 551.263421 247.191466 550.70084 246.628885 
C 550.13826 246.066304 549.375129 245.750205 548.57952 245.750205 
C 547.783911 245.750205 547.020781 246.066304 546.4582 246.628885 
C 545.895619 247.191466 545.57952 247.954596 545.57952 248.750205 
C 545.57952 249.545815 545.895619 250.308945 546.4582 250.871526 
C 547.020781 251.434107 547.783911 251.750205 548.57952 251.750205 
z
" clip-path="url(#p1715200d81)" style="stroke: #ffffff; stroke-width: 0.48"/>
    <path d="M 551.832258 302.0526 
L 557.832258 302.0526 
L 557.832258 296.0526 
L 551.832258 296.0526 
z
" clip-path="url(#p1715200d81)" style="stroke: #ffffff; stroke-width: 0.48"/>
    <path d="M 549.537578 277.698277 
L 552.083163 273.455637 
L 549.537578 269.212996 
L 546.991994 273.455637 
z
" clip-path="url(#p1715200d81)" style="stroke: #ffffff; stroke-width: 0.48"/>
    <path d="M 547.187049 217.526581 
L 548.687049 216.026581 
L 550.187049 217.526581 
L 551.687049 216.026581 
L 550.187049 214.526581 
L 551.687049 213.026581 
L 550.187049 211.526581 
L 548.687049 213.026581 
L 547.187049 211.526581 
L 545.687049 213.026581 
L 547.187049 214.526581 
L 545.687049 216.026581 
z
" clip-path="url(#p1715200d81)" style="stroke: #ffffff; stroke-width: 0.48"/>
    <path d="M 589.016524 351.163362 
L 586.016524 357.163362 
L 592.016524 357.163362 
z
" clip-path="url(#p1715200d81)" style="stroke: #ffffff; stroke-width: 0.48"/>
    <path d="M 584.509481 357.20469 
C 585.30509 357.20469 586.06822 356.888591 586.630801 356.326011 
C 587.193382 355.76343 587.509481 355.0003 587.509481 354.20469 
C 587.509481 353.409081 587.193382 352.645951 586.630801 352.08337 
C 586.06822 351.520789 585.30509 351.20469 584.509481 351.20469 
C 583.713871 351.20469 582.950741 351.520789 582.38816 352.08337 
C 581.82558 352.645951 581.509481 353.409081 581.509481 354.20469 
C 581.509481 355.0003 581.82558 355.76343 582.38816 356.326011 
C 582.950741 356.888591 583.713871 357.20469 584.509481 357.20469 
z
" clip-path="url(#p1715200d81)" style="stroke: #ffffff; stroke-width: 0.48"/>
    <path d="M 588.927583 357.081535 
L 594.927583 357.081535 
L 594.927583 351.081535 
L 588.927583 351.081535 
z
" clip-path="url(#p1715200d81)" style="stroke: #ffffff; stroke-width: 0.48"/>
    <path d="M 583.764907 358.29396 
L 586.310492 354.051319 
L 583.764907 349.808678 
L 581.219323 354.051319 
z
" clip-path="url(#p1715200d81)" style="stroke: #ffffff; stroke-width: 0.48"/>
    <path d="M 592.49942 357.172086 
L 593.99942 355.672086 
L 595.49942 357.172086 
L 596.99942 355.672086 
L 595.49942 354.172086 
L 596.99942 352.672086 
L 595.49942 351.172086 
L 593.99942 352.672086 
L 592.49942 351.172086 
L 590.99942 352.672086 
L 592.49942 354.172086 
L 590.99942 355.672086 
z
" clip-path="url(#p1715200d81)" style="stroke: #ffffff; stroke-width: 0.48"/>
    <path d="M 628.984637 305.616168 
L 625.984637 311.616168 
L 631.984637 311.616168 
z
" clip-path="url(#p1715200d81)" style="stroke: #ffffff; stroke-width: 0.48"/>
    <path d="M 622.550836 322.100265 
C 623.346445 322.100265 624.109575 321.784166 624.672156 321.221585 
C 625.234737 320.659004 625.550836 319.895874 625.550836 319.100265 
C 625.550836 318.304656 625.234737 317.541525 624.672156 316.978945 
C 624.109575 316.416364 623.346445 316.100265 622.550836 316.100265 
C 621.755226 316.100265 620.992096 316.416364 620.429515 316.978945 
C 619.866935 317.541525 619.550836 318.304656 619.550836 319.100265 
C 619.550836 319.895874 619.866935 320.659004 620.429515 321.221585 
C 620.992096 321.784166 621.755226 322.100265 622.550836 322.100265 
z
" clip-path="url(#p1715200d81)" style="stroke: #ffffff; stroke-width: 0.48"/>
    <path d="M 617.383606 318.237581 
L 623.383606 318.237581 
L 623.383606 312.237581 
L 617.383606 312.237581 
z
" clip-path="url(#p1715200d81)" style="stroke: #ffffff; stroke-width: 0.48"/>
    <path d="M 629.469438 308.746067 
L 632.015022 304.503427 
L 629.469438 300.260786 
L 626.923854 304.503427 
z
" clip-path="url(#p1715200d81)" style="stroke: #ffffff; stroke-width: 0.48"/>
    <path d="M 626.751126 289.613792 
L 628.251126 288.113792 
L 629.751126 289.613792 
L 631.251126 288.113792 
L 629.751126 286.613792 
L 631.251126 285.113792 
L 629.751126 283.613792 
L 628.251126 285.113792 
L 626.751126 283.613792 
L 625.251126 285.113792 
L 626.751126 286.613792 
L 625.251126 288.113792 
z
" clip-path="url(#p1715200d81)" style="stroke: #ffffff; stroke-width: 0.48"/>
    <path d="M 665.892657 315.784453 
L 662.892657 321.784453 
L 668.892657 321.784453 
z
" clip-path="url(#p1715200d81)" style="stroke: #ffffff; stroke-width: 0.48"/>
    <path d="M 666.366761 312.752264 
C 667.162371 312.752264 667.925501 312.436165 668.488082 311.873585 
C 669.050662 311.311004 669.366761 310.547874 669.366761 309.752264 
C 669.366761 308.956655 669.050662 308.193525 668.488082 307.630944 
C 667.925501 307.068363 667.162371 306.752264 666.366761 306.752264 
C 665.571152 306.752264 664.808022 307.068363 664.245441 307.630944 
C 663.68286 308.193525 663.366761 308.956655 663.366761 309.752264 
C 663.366761 310.547874 663.68286 311.311004 664.245441 311.873585 
C 664.808022 312.436165 665.571152 312.752264 666.366761 312.752264 
z
" clip-path="url(#p1715200d81)" style="stroke: #ffffff; stroke-width: 0.48"/>
    <path d="M 655.545342 288.480974 
L 661.545342 288.480974 
L 661.545342 282.480974 
L 655.545342 282.480974 
z
" clip-path="url(#p1715200d81)" style="stroke: #ffffff; stroke-width: 0.48"/>
    <path d="M 661.735954 287.650713 
L 664.281538 283.408072 
L 661.735954 279.165432 
L 659.190369 283.408072 
z
" clip-path="url(#p1715200d81)" style="stroke: #ffffff; stroke-width: 0.48"/>
    <path d="M 657.514524 336.334377 
L 659.014524 334.834377 
L 660.514524 336.334377 
L 662.014524 334.834377 
L 660.514524 333.334377 
L 662.014524 331.834377 
L 660.514524 330.334377 
L 659.014524 331.834377 
L 657.514524 330.334377 
L 656.014524 331.834377 
L 657.514524 333.334377 
L 656.014524 334.834377 
z
" clip-path="url(#p1715200d81)" style="stroke: #ffffff; stroke-width: 0.48"/>
    <path d="M 704.789992 277.464304 
L 701.789992 283.464304 
L 707.789992 283.464304 
z
" clip-path="url(#p1715200d81)" style="stroke: #ffffff; stroke-width: 0.48"/>
    <path d="M 702.099877 289.283417 
C 702.895486 289.283417 703.658616 288.967318 704.221197 288.404737 
C 704.783778 287.842156 705.099877 287.079026 705.099877 286.283417 
C 705.099877 285.487807 704.783778 284.724677 704.221197 284.162096 
C 703.658616 283.599516 702.895486 283.283417 702.099877 283.283417 
C 701.304267 283.283417 700.541137 283.599516 699.978556 284.162096 
C 699.415975 284.724677 699.099877 285.487807 699.099877 286.283417 
C 699.099877 287.079026 699.415975 287.842156 699.978556 288.404737 
C 700.541137 288.967318 701.304267 289.283417 702.099877 289.283417 
z
" clip-path="url(#p1715200d81)" style="stroke: #ffffff; stroke-width: 0.48"/>
    <path d="M 695.819757 313.693907 
L 701.819757 313.693907 
L 701.819757 307.693907 
L 695.819757 307.693907 
z
" clip-path="url(#p1715200d81)" style="stroke: #ffffff; stroke-width: 0.48"/>
    <path d="M 695.820762 301.484123 
L 698.366347 297.241482 
L 695.820762 292.998841 
L 693.275178 297.241482 
z
" clip-path="url(#p1715200d81)" style="stroke: #ffffff; stroke-width: 0.48"/>
    <path d="M 697.096344 287.666123 
L 698.596344 286.166123 
L 700.096344 287.666123 
L 701.596344 286.166123 
L 700.096344 284.666123 
L 701.596344 283.166123 
L 700.096344 281.666123 
L 698.596344 283.166123 
L 697.096344 281.666123 
L 695.596344 283.166123 
L 697.096344 284.666123 
L 695.596344 286.166123 
z
" clip-path="url(#p1715200d81)" style="stroke: #ffffff; stroke-width: 0.48"/>
    <path d="M 736.148705 347.423786 
L 733.148705 353.423786 
L 739.148705 353.423786 
z
" clip-path="url(#p1715200d81)" style="stroke: #ffffff; stroke-width: 0.48"/>
    <path d="M 740.685487 355.990298 
C 741.481096 355.990298 742.244226 355.674199 742.806807 355.111618 
C 743.369388 354.549037 743.685487 353.785907 743.685487 352.990298 
C 743.685487 352.194688 743.369388 351.431558 742.806807 350.868977 
C 742.244226 350.306396 741.481096 349.990298 740.685487 349.990298 
C 739.889877 349.990298 739.126747 350.306396 738.564166 350.868977 
C 738.001586 351.431558 737.685487 352.194688 737.685487 352.990298 
C 737.685487 353.785907 738.001586 354.549037 738.564166 355.111618 
C 739.126747 355.674199 739.889877 355.990298 740.685487 355.990298 
z
" clip-path="url(#p1715200d81)" style="stroke: #ffffff; stroke-width: 0.48"/>
    <path d="M 736.652892 353.993025 
L 742.652892 353.993025 
L 742.652892 347.993025 
L 736.652892 347.993025 
z
" clip-path="url(#p1715200d81)" style="stroke: #ffffff; stroke-width: 0.48"/>
    <path d="M 742.453504 356.1749 
L 744.999088 351.93226 
L 742.453504 347.689619 
L 739.90792 351.93226 
z
" clip-path="url(#p1715200d81)" style="stroke: #ffffff; stroke-width: 0.48"/>
    <path d="M 736.298093 354.543906 
L 737.798093 353.043906 
L 739.298093 354.543906 
L 740.798093 353.043906 
L 739.298093 351.543906 
L 740.798093 350.043906 
L 739.298093 348.543906 
L 737.798093 350.043906 
L 736.298093 348.543906 
L 734.798093 350.043906 
L 736.298093 351.543906 
L 734.798093 353.043906 
z
" clip-path="url(#p1715200d81)" style="stroke: #ffffff; stroke-width: 0.48"/>
    <path d="M 771.235479 315.826471 
L 768.235479 321.826471 
L 774.235479 321.826471 
z
" clip-path="url(#p1715200d81)" style="stroke: #ffffff; stroke-width: 0.48"/>
    <path d="M 777.895001 357.261174 
C 778.69061 357.261174 779.453741 356.945075 780.016321 356.382494 
C 780.578902 355.819913 780.895001 355.056783 780.895001 354.261174 
C 780.895001 353.465564 780.578902 352.702434 780.016321 352.139853 
C 779.453741 351.577273 778.69061 351.261174 777.895001 351.261174 
C 777.099392 351.261174 776.336262 351.577273 775.773681 352.139853 
C 775.2111 352.702434 774.895001 353.465564 774.895001 354.261174 
C 774.895001 355.056783 775.2111 355.819913 775.773681 356.382494 
C 776.336262 356.945075 777.099392 357.261174 777.895001 357.261174 
z
" clip-path="url(#p1715200d81)" style="stroke: #ffffff; stroke-width: 0.48"/>
    <path d="M 775.428304 357.259718 
L 781.428304 357.259718 
L 781.428304 351.259718 
L 775.428304 351.259718 
z
" clip-path="url(#p1715200d81)" style="stroke: #ffffff; stroke-width: 0.48"/>
    <path d="M 776.190241 358.413008 
L 778.735826 354.170367 
L 776.190241 349.927726 
L 773.644657 354.170367 
z
" clip-path="url(#p1715200d81)" style="stroke: #ffffff; stroke-width: 0.48"/>
    <path d="M 777.042526 357.242484 
L 778.542526 355.742484 
L 780.042526 357.242484 
L 781.542526 355.742484 
L 780.042526 354.242484 
L 781.542526 352.742484 
L 780.042526 351.242484 
L 778.542526 352.742484 
L 777.042526 351.242484 
L 775.542526 352.742484 
L 777.042526 354.242484 
L 775.542526 355.742484 
z
" clip-path="url(#p1715200d81)" style="stroke: #ffffff; stroke-width: 0.48"/>
    <path d="M 812.826294 314.397869 
L 809.826294 320.397869 
L 815.826294 320.397869 
z
" clip-path="url(#p1715200d81)" style="stroke: #ffffff; stroke-width: 0.48"/>
    <path d="M 813.150909 310.492929 
C 813.946518 310.492929 814.709649 310.17683 815.272229 309.614249 
C 815.83481 309.051668 816.150909 308.288538 816.150909 307.492929 
C 816.150909 306.697319 815.83481 305.934189 815.272229 305.371608 
C 814.709649 304.809028 813.946518 304.492929 813.150909 304.492929 
C 812.3553 304.492929 811.592169 304.809028 811.029589 305.371608 
C 810.467008 305.934189 810.150909 306.697319 810.150909 307.492929 
C 810.150909 308.288538 810.467008 309.051668 811.029589 309.614249 
C 811.592169 310.17683 812.3553 310.492929 813.150909 310.492929 
z
" clip-path="url(#p1715200d81)" style="stroke: #ffffff; stroke-width: 0.48"/>
    <path d="M 809.083055 332.432848 
L 815.083055 332.432848 
L 815.083055 326.432848 
L 809.083055 326.432848 
z
" clip-path="url(#p1715200d81)" style="stroke: #ffffff; stroke-width: 0.48"/>
    <path d="M 807.572085 318.031833 
L 810.11767 313.789192 
L 807.572085 309.546552 
L 805.026501 313.789192 
z
" clip-path="url(#p1715200d81)" style="stroke: #ffffff; stroke-width: 0.48"/>
    <path d="M 806.997253 304.045313 
L 808.497253 302.545313 
L 809.997253 304.045313 
L 811.497253 302.545313 
L 809.997253 301.045313 
L 811.497253 299.545313 
L 809.997253 298.045313 
L 808.497253 299.545313 
L 806.997253 298.045313 
L 805.497253 299.545313 
L 806.997253 301.045313 
L 805.497253 302.545313 
z
" clip-path="url(#p1715200d81)" style="stroke: #ffffff; stroke-width: 0.48"/>
   </g>
   <g id="matplotlib.axis_1">
    <g id="xtick_1">
     <g id="line2d_1">
      <defs>
       <path id="meee7b6dc6d" d="M 0 0 
L 0 3.5 
" style="stroke: #000000; stroke-width: 0.8"/>
      </defs>
      <g>
       <use xlink:href="#meee7b6dc6d" x="102.427845" y="369.507896" style="stroke: #000000; stroke-width: 0.8"/>
      </g>
     </g>
     <g id="text_1">
      <!-- CD57 + CD8 + T -->
      <g transform="translate(47.626186 434.821667) rotate(-45) scale(0.09 -0.09)">
       <defs>
        <path id="DejaVuSans-43" d="M 4122 4306 
L 4122 3641 
Q 3803 3938 3442 4084 
Q 3081 4231 2675 4231 
Q 1875 4231 1450 3742 
Q 1025 3253 1025 2328 
Q 1025 1406 1450 917 
Q 1875 428 2675 428 
Q 3081 428 3442 575 
Q 3803 722 4122 1019 
L 4122 359 
Q 3791 134 3420 21 
Q 3050 -91 2638 -91 
Q 1578 -91 968 557 
Q 359 1206 359 2328 
Q 359 3453 968 4101 
Q 1578 4750 2638 4750 
Q 3056 4750 3426 4639 
Q 3797 4528 4122 4306 
z
" transform="scale(0.015625)"/>
        <path id="DejaVuSans-44" d="M 1259 4147 
L 1259 519 
L 2022 519 
Q 2988 519 3436 956 
Q 3884 1394 3884 2338 
Q 3884 3275 3436 3711 
Q 2988 4147 2022 4147 
L 1259 4147 
z
M 628 4666 
L 1925 4666 
Q 3281 4666 3915 4102 
Q 4550 3538 4550 2338 
Q 4550 1131 3912 565 
Q 3275 0 1925 0 
L 628 0 
L 628 4666 
z
" transform="scale(0.015625)"/>
        <path id="DejaVuSans-35" d="M 691 4666 
L 3169 4666 
L 3169 4134 
L 1269 4134 
L 1269 2991 
Q 1406 3038 1543 3061 
Q 1681 3084 1819 3084 
Q 2600 3084 3056 2656 
Q 3513 2228 3513 1497 
Q 3513 744 3044 326 
Q 2575 -91 1722 -91 
Q 1428 -91 1123 -41 
Q 819 9 494 109 
L 494 744 
Q 775 591 1075 516 
Q 1375 441 1709 441 
Q 2250 441 2565 725 
Q 2881 1009 2881 1497 
Q 2881 1984 2565 2268 
Q 2250 2553 1709 2553 
Q 1456 2553 1204 2497 
Q 953 2441 691 2322 
L 691 4666 
z
" transform="scale(0.015625)"/>
        <path id="DejaVuSans-37" d="M 525 4666 
L 3525 4666 
L 3525 4397 
L 1831 0 
L 1172 0 
L 2766 4134 
L 525 4134 
L 525 4666 
z
" transform="scale(0.015625)"/>
        <path id="DejaVuSans-20" transform="scale(0.015625)"/>
        <path id="DejaVuSans-2b" d="M 2944 4013 
L 2944 2272 
L 4684 2272 
L 4684 1741 
L 2944 1741 
L 2944 0 
L 2419 0 
L 2419 1741 
L 678 1741 
L 678 2272 
L 2419 2272 
L 2419 4013 
L 2944 4013 
z
" transform="scale(0.015625)"/>
        <path id="DejaVuSans-38" d="M 2034 2216 
Q 1584 2216 1326 1975 
Q 1069 1734 1069 1313 
Q 1069 891 1326 650 
Q 1584 409 2034 409 
Q 2484 409 2743 651 
Q 3003 894 3003 1313 
Q 3003 1734 2745 1975 
Q 2488 2216 2034 2216 
z
M 1403 2484 
Q 997 2584 770 2862 
Q 544 3141 544 3541 
Q 544 4100 942 4425 
Q 1341 4750 2034 4750 
Q 2731 4750 3128 4425 
Q 3525 4100 3525 3541 
Q 3525 3141 3298 2862 
Q 3072 2584 2669 2484 
Q 3125 2378 3379 2068 
Q 3634 1759 3634 1313 
Q 3634 634 3220 271 
Q 2806 -91 2034 -91 
Q 1263 -91 848 271 
Q 434 634 434 1313 
Q 434 1759 690 2068 
Q 947 2378 1403 2484 
z
M 1172 3481 
Q 1172 3119 1398 2916 
Q 1625 2713 2034 2713 
Q 2441 2713 2670 2916 
Q 2900 3119 2900 3481 
Q 2900 3844 2670 4047 
Q 2441 4250 2034 4250 
Q 1625 4250 1398 4047 
Q 1172 3844 1172 3481 
z
" transform="scale(0.015625)"/>
        <path id="DejaVuSans-54" d="M -19 4666 
L 3928 4666 
L 3928 4134 
L 2272 4134 
L 2272 0 
L 1638 0 
L 1638 4134 
L -19 4134 
L -19 4666 
z
" transform="scale(0.015625)"/>
       </defs>
       <use xlink:href="#DejaVuSans-43"/>
       <use xlink:href="#DejaVuSans-44" x="69.824219"/>
       <use xlink:href="#DejaVuSans-35" x="146.826172"/>
       <use xlink:href="#DejaVuSans-37" x="210.449219"/>
       <use xlink:href="#DejaVuSans-20" x="274.072266"/>
       <use xlink:href="#DejaVuSans-2b" x="305.859375"/>
       <use xlink:href="#DejaVuSans-20" x="389.648438"/>
       <use xlink:href="#DejaVuSans-43" x="421.435547"/>
       <use xlink:href="#DejaVuSans-44" x="491.259766"/>
       <use xlink:href="#DejaVuSans-38" x="568.261719"/>
       <use xlink:href="#DejaVuSans-20" x="631.884766"/>
       <use xlink:href="#DejaVuSans-2b" x="663.671875"/>
       <use xlink:href="#DejaVuSans-20" x="747.460938"/>
       <use xlink:href="#DejaVuSans-54" x="779.248047"/>
      </g>
     </g>
    </g>
    <g id="xtick_2">
     <g id="line2d_2">
      <g>
       <use xlink:href="#meee7b6dc6d" x="139.8209" y="369.507896" style="stroke: #000000; stroke-width: 0.8"/>
      </g>
     </g>
     <g id="text_2">
      <!-- Effector CD8 + T -->
      <g transform="translate(84.894945 434.945963) rotate(-45) scale(0.09 -0.09)">
       <defs>
        <path id="DejaVuSans-45" d="M 628 4666 
L 3578 4666 
L 3578 4134 
L 1259 4134 
L 1259 2753 
L 3481 2753 
L 3481 2222 
L 1259 2222 
L 1259 531 
L 3634 531 
L 3634 0 
L 628 0 
L 628 4666 
z
" transform="scale(0.015625)"/>
        <path id="DejaVuSans-66" d="M 2375 4863 
L 2375 4384 
L 1825 4384 
Q 1516 4384 1395 4259 
Q 1275 4134 1275 3809 
L 1275 3500 
L 2222 3500 
L 2222 3053 
L 1275 3053 
L 1275 0 
L 697 0 
L 697 3053 
L 147 3053 
L 147 3500 
L 697 3500 
L 697 3744 
Q 697 4328 969 4595 
Q 1241 4863 1831 4863 
L 2375 4863 
z
" transform="scale(0.015625)"/>
        <path id="DejaVuSans-65" d="M 3597 1894 
L 3597 1613 
L 953 1613 
Q 991 1019 1311 708 
Q 1631 397 2203 397 
Q 2534 397 2845 478 
Q 3156 559 3463 722 
L 3463 178 
Q 3153 47 2828 -22 
Q 2503 -91 2169 -91 
Q 1331 -91 842 396 
Q 353 884 353 1716 
Q 353 2575 817 3079 
Q 1281 3584 2069 3584 
Q 2775 3584 3186 3129 
Q 3597 2675 3597 1894 
z
M 3022 2063 
Q 3016 2534 2758 2815 
Q 2500 3097 2075 3097 
Q 1594 3097 1305 2825 
Q 1016 2553 972 2059 
L 3022 2063 
z
" transform="scale(0.015625)"/>
        <path id="DejaVuSans-63" d="M 3122 3366 
L 3122 2828 
Q 2878 2963 2633 3030 
Q 2388 3097 2138 3097 
Q 1578 3097 1268 2742 
Q 959 2388 959 1747 
Q 959 1106 1268 751 
Q 1578 397 2138 397 
Q 2388 397 2633 464 
Q 2878 531 3122 666 
L 3122 134 
Q 2881 22 2623 -34 
Q 2366 -91 2075 -91 
Q 1284 -91 818 406 
Q 353 903 353 1747 
Q 353 2603 823 3093 
Q 1294 3584 2113 3584 
Q 2378 3584 2631 3529 
Q 2884 3475 3122 3366 
z
" transform="scale(0.015625)"/>
        <path id="DejaVuSans-74" d="M 1172 4494 
L 1172 3500 
L 2356 3500 
L 2356 3053 
L 1172 3053 
L 1172 1153 
Q 1172 725 1289 603 
Q 1406 481 1766 481 
L 2356 481 
L 2356 0 
L 1766 0 
Q 1100 0 847 248 
Q 594 497 594 1153 
L 594 3053 
L 172 3053 
L 172 3500 
L 594 3500 
L 594 4494 
L 1172 4494 
z
" transform="scale(0.015625)"/>
        <path id="DejaVuSans-6f" d="M 1959 3097 
Q 1497 3097 1228 2736 
Q 959 2375 959 1747 
Q 959 1119 1226 758 
Q 1494 397 1959 397 
Q 2419 397 2687 759 
Q 2956 1122 2956 1747 
Q 2956 2369 2687 2733 
Q 2419 3097 1959 3097 
z
M 1959 3584 
Q 2709 3584 3137 3096 
Q 3566 2609 3566 1747 
Q 3566 888 3137 398 
Q 2709 -91 1959 -91 
Q 1206 -91 779 398 
Q 353 888 353 1747 
Q 353 2609 779 3096 
Q 1206 3584 1959 3584 
z
" transform="scale(0.015625)"/>
        <path id="DejaVuSans-72" d="M 2631 2963 
Q 2534 3019 2420 3045 
Q 2306 3072 2169 3072 
Q 1681 3072 1420 2755 
Q 1159 2438 1159 1844 
L 1159 0 
L 581 0 
L 581 3500 
L 1159 3500 
L 1159 2956 
Q 1341 3275 1631 3429 
Q 1922 3584 2338 3584 
Q 2397 3584 2469 3576 
Q 2541 3569 2628 3553 
L 2631 2963 
z
" transform="scale(0.015625)"/>
       </defs>
       <use xlink:href="#DejaVuSans-45"/>
       <use xlink:href="#DejaVuSans-66" x="63.183594"/>
       <use xlink:href="#DejaVuSans-66" x="98.388672"/>
       <use xlink:href="#DejaVuSans-65" x="133.59375"/>
       <use xlink:href="#DejaVuSans-63" x="195.117188"/>
       <use xlink:href="#DejaVuSans-74" x="250.097656"/>
       <use xlink:href="#DejaVuSans-6f" x="289.306641"/>
       <use xlink:href="#DejaVuSans-72" x="350.488281"/>
       <use xlink:href="#DejaVuSans-20" x="391.601562"/>
       <use xlink:href="#DejaVuSans-43" x="423.388672"/>
       <use xlink:href="#DejaVuSans-44" x="493.212891"/>
       <use xlink:href="#DejaVuSans-38" x="570.214844"/>
       <use xlink:href="#DejaVuSans-20" x="633.837891"/>
       <use xlink:href="#DejaVuSans-2b" x="665.625"/>
       <use xlink:href="#DejaVuSans-20" x="749.414062"/>
       <use xlink:href="#DejaVuSans-54" x="781.201172"/>
      </g>
     </g>
    </g>
    <g id="xtick_3">
     <g id="line2d_3">
      <g>
       <use xlink:href="#meee7b6dc6d" x="177.213956" y="369.507896" style="stroke: #000000; stroke-width: 0.8"/>
      </g>
     </g>
     <g id="text_3">
      <!-- CD28 - CD8 + T -->
      <g transform="translate(125.449099 431.784864) rotate(-45) scale(0.09 -0.09)">
       <defs>
        <path id="DejaVuSans-32" d="M 1228 531 
L 3431 531 
L 3431 0 
L 469 0 
L 469 531 
Q 828 903 1448 1529 
Q 2069 2156 2228 2338 
Q 2531 2678 2651 2914 
Q 2772 3150 2772 3378 
Q 2772 3750 2511 3984 
Q 2250 4219 1831 4219 
Q 1534 4219 1204 4116 
Q 875 4013 500 3803 
L 500 4441 
Q 881 4594 1212 4672 
Q 1544 4750 1819 4750 
Q 2544 4750 2975 4387 
Q 3406 4025 3406 3419 
Q 3406 3131 3298 2873 
Q 3191 2616 2906 2266 
Q 2828 2175 2409 1742 
Q 1991 1309 1228 531 
z
" transform="scale(0.015625)"/>
        <path id="DejaVuSans-2d" d="M 313 2009 
L 1997 2009 
L 1997 1497 
L 313 1497 
L 313 2009 
z
" transform="scale(0.015625)"/>
       </defs>
       <use xlink:href="#DejaVuSans-43"/>
       <use xlink:href="#DejaVuSans-44" x="69.824219"/>
       <use xlink:href="#DejaVuSans-32" x="146.826172"/>
       <use xlink:href="#DejaVuSans-38" x="210.449219"/>
       <use xlink:href="#DejaVuSans-20" x="274.072266"/>
       <use xlink:href="#DejaVuSans-2d" x="305.859375"/>
       <use xlink:href="#DejaVuSans-20" x="341.943359"/>
       <use xlink:href="#DejaVuSans-43" x="373.730469"/>
       <use xlink:href="#DejaVuSans-44" x="443.554688"/>
       <use xlink:href="#DejaVuSans-38" x="520.556641"/>
       <use xlink:href="#DejaVuSans-20" x="584.179688"/>
       <use xlink:href="#DejaVuSans-2b" x="615.966797"/>
       <use xlink:href="#DejaVuSans-20" x="699.755859"/>
       <use xlink:href="#DejaVuSans-54" x="731.542969"/>
      </g>
     </g>
    </g>
    <g id="xtick_4">
     <g id="line2d_4">
      <g>
       <use xlink:href="#meee7b6dc6d" x="214.607011" y="369.507896" style="stroke: #000000; stroke-width: 0.8"/>
      </g>
     </g>
     <g id="text_4">
      <!-- Effector_memory CD8 + T -->
      <g transform="translate(129.731658 464.718362) rotate(-45) scale(0.09 -0.09)">
       <defs>
        <path id="DejaVuSans-5f" d="M 3263 -1063 
L 3263 -1509 
L -63 -1509 
L -63 -1063 
L 3263 -1063 
z
" transform="scale(0.015625)"/>
        <path id="DejaVuSans-6d" d="M 3328 2828 
Q 3544 3216 3844 3400 
Q 4144 3584 4550 3584 
Q 5097 3584 5394 3201 
Q 5691 2819 5691 2113 
L 5691 0 
L 5113 0 
L 5113 2094 
Q 5113 2597 4934 2840 
Q 4756 3084 4391 3084 
Q 3944 3084 3684 2787 
Q 3425 2491 3425 1978 
L 3425 0 
L 2847 0 
L 2847 2094 
Q 2847 2600 2669 2842 
Q 2491 3084 2119 3084 
Q 1678 3084 1418 2786 
Q 1159 2488 1159 1978 
L 1159 0 
L 581 0 
L 581 3500 
L 1159 3500 
L 1159 2956 
Q 1356 3278 1631 3431 
Q 1906 3584 2284 3584 
Q 2666 3584 2933 3390 
Q 3200 3197 3328 2828 
z
" transform="scale(0.015625)"/>
        <path id="DejaVuSans-79" d="M 2059 -325 
Q 1816 -950 1584 -1140 
Q 1353 -1331 966 -1331 
L 506 -1331 
L 506 -850 
L 844 -850 
Q 1081 -850 1212 -737 
Q 1344 -625 1503 -206 
L 1606 56 
L 191 3500 
L 800 3500 
L 1894 763 
L 2988 3500 
L 3597 3500 
L 2059 -325 
z
" transform="scale(0.015625)"/>
       </defs>
       <use xlink:href="#DejaVuSans-45"/>
       <use xlink:href="#DejaVuSans-66" x="63.183594"/>
       <use xlink:href="#DejaVuSans-66" x="98.388672"/>
       <use xlink:href="#DejaVuSans-65" x="133.59375"/>
       <use xlink:href="#DejaVuSans-63" x="195.117188"/>
       <use xlink:href="#DejaVuSans-74" x="250.097656"/>
       <use xlink:href="#DejaVuSans-6f" x="289.306641"/>
       <use xlink:href="#DejaVuSans-72" x="350.488281"/>
       <use xlink:href="#DejaVuSans-5f" x="391.601562"/>
       <use xlink:href="#DejaVuSans-6d" x="441.601562"/>
       <use xlink:href="#DejaVuSans-65" x="539.013672"/>
       <use xlink:href="#DejaVuSans-6d" x="600.537109"/>
       <use xlink:href="#DejaVuSans-6f" x="697.949219"/>
       <use xlink:href="#DejaVuSans-72" x="759.130859"/>
       <use xlink:href="#DejaVuSans-79" x="800.244141"/>
       <use xlink:href="#DejaVuSans-20" x="859.423828"/>
       <use xlink:href="#DejaVuSans-43" x="891.210938"/>
       <use xlink:href="#DejaVuSans-44" x="961.035156"/>
       <use xlink:href="#DejaVuSans-38" x="1038.037109"/>
       <use xlink:href="#DejaVuSans-20" x="1101.660156"/>
       <use xlink:href="#DejaVuSans-2b" x="1133.447266"/>
       <use xlink:href="#DejaVuSans-20" x="1217.236328"/>
       <use xlink:href="#DejaVuSans-54" x="1249.023438"/>
      </g>
     </g>
    </g>
    <g id="xtick_5">
     <g id="line2d_5">
      <g>
       <use xlink:href="#meee7b6dc6d" x="252.000066" y="369.507896" style="stroke: #000000; stroke-width: 0.8"/>
      </g>
     </g>
     <g id="text_5">
      <!-- Treg_cells -->
      <g transform="translate(219.674127 412.168949) rotate(-45) scale(0.09 -0.09)">
       <defs>
        <path id="DejaVuSans-67" d="M 2906 1791 
Q 2906 2416 2648 2759 
Q 2391 3103 1925 3103 
Q 1463 3103 1205 2759 
Q 947 2416 947 1791 
Q 947 1169 1205 825 
Q 1463 481 1925 481 
Q 2391 481 2648 825 
Q 2906 1169 2906 1791 
z
M 3481 434 
Q 3481 -459 3084 -895 
Q 2688 -1331 1869 -1331 
Q 1566 -1331 1297 -1286 
Q 1028 -1241 775 -1147 
L 775 -588 
Q 1028 -725 1275 -790 
Q 1522 -856 1778 -856 
Q 2344 -856 2625 -561 
Q 2906 -266 2906 331 
L 2906 616 
Q 2728 306 2450 153 
Q 2172 0 1784 0 
Q 1141 0 747 490 
Q 353 981 353 1791 
Q 353 2603 747 3093 
Q 1141 3584 1784 3584 
Q 2172 3584 2450 3431 
Q 2728 3278 2906 2969 
L 2906 3500 
L 3481 3500 
L 3481 434 
z
" transform="scale(0.015625)"/>
        <path id="DejaVuSans-6c" d="M 603 4863 
L 1178 4863 
L 1178 0 
L 603 0 
L 603 4863 
z
" transform="scale(0.015625)"/>
        <path id="DejaVuSans-73" d="M 2834 3397 
L 2834 2853 
Q 2591 2978 2328 3040 
Q 2066 3103 1784 3103 
Q 1356 3103 1142 2972 
Q 928 2841 928 2578 
Q 928 2378 1081 2264 
Q 1234 2150 1697 2047 
L 1894 2003 
Q 2506 1872 2764 1633 
Q 3022 1394 3022 966 
Q 3022 478 2636 193 
Q 2250 -91 1575 -91 
Q 1294 -91 989 -36 
Q 684 19 347 128 
L 347 722 
Q 666 556 975 473 
Q 1284 391 1588 391 
Q 1994 391 2212 530 
Q 2431 669 2431 922 
Q 2431 1156 2273 1281 
Q 2116 1406 1581 1522 
L 1381 1569 
Q 847 1681 609 1914 
Q 372 2147 372 2553 
Q 372 3047 722 3315 
Q 1072 3584 1716 3584 
Q 2034 3584 2315 3537 
Q 2597 3491 2834 3397 
z
" transform="scale(0.015625)"/>
       </defs>
       <use xlink:href="#DejaVuSans-54"/>
       <use xlink:href="#DejaVuSans-72" x="46.333984"/>
       <use xlink:href="#DejaVuSans-65" x="85.197266"/>
       <use xlink:href="#DejaVuSans-67" x="146.720703"/>
       <use xlink:href="#DejaVuSans-5f" x="210.197266"/>
       <use xlink:href="#DejaVuSans-63" x="260.197266"/>
       <use xlink:href="#DejaVuSans-65" x="315.177734"/>
       <use xlink:href="#DejaVuSans-6c" x="376.701172"/>
       <use xlink:href="#DejaVuSans-6c" x="404.484375"/>
       <use xlink:href="#DejaVuSans-73" x="432.267578"/>
      </g>
     </g>
    </g>
    <g id="xtick_6">
     <g id="line2d_6">
      <g>
       <use xlink:href="#meee7b6dc6d" x="289.393121" y="369.507896" style="stroke: #000000; stroke-width: 0.8"/>
      </g>
     </g>
     <g id="text_6">
      <!-- Effector_memory CD4-1 + CD4-2 + T -->
      <g transform="translate(169.056584 500.179547) rotate(-45) scale(0.09 -0.09)">
       <defs>
        <path id="DejaVuSans-34" d="M 2419 4116 
L 825 1625 
L 2419 1625 
L 2419 4116 
z
M 2253 4666 
L 3047 4666 
L 3047 1625 
L 3713 1625 
L 3713 1100 
L 3047 1100 
L 3047 0 
L 2419 0 
L 2419 1100 
L 313 1100 
L 313 1709 
L 2253 4666 
z
" transform="scale(0.015625)"/>
        <path id="DejaVuSans-31" d="M 794 531 
L 1825 531 
L 1825 4091 
L 703 3866 
L 703 4441 
L 1819 4666 
L 2450 4666 
L 2450 531 
L 3481 531 
L 3481 0 
L 794 0 
L 794 531 
z
" transform="scale(0.015625)"/>
       </defs>
       <use xlink:href="#DejaVuSans-45"/>
       <use xlink:href="#DejaVuSans-66" x="63.183594"/>
       <use xlink:href="#DejaVuSans-66" x="98.388672"/>
       <use xlink:href="#DejaVuSans-65" x="133.59375"/>
       <use xlink:href="#DejaVuSans-63" x="195.117188"/>
       <use xlink:href="#DejaVuSans-74" x="250.097656"/>
       <use xlink:href="#DejaVuSans-6f" x="289.306641"/>
       <use xlink:href="#DejaVuSans-72" x="350.488281"/>
       <use xlink:href="#DejaVuSans-5f" x="391.601562"/>
       <use xlink:href="#DejaVuSans-6d" x="441.601562"/>
       <use xlink:href="#DejaVuSans-65" x="539.013672"/>
       <use xlink:href="#DejaVuSans-6d" x="600.537109"/>
       <use xlink:href="#DejaVuSans-6f" x="697.949219"/>
       <use xlink:href="#DejaVuSans-72" x="759.130859"/>
       <use xlink:href="#DejaVuSans-79" x="800.244141"/>
       <use xlink:href="#DejaVuSans-20" x="859.423828"/>
       <use xlink:href="#DejaVuSans-43" x="891.210938"/>
       <use xlink:href="#DejaVuSans-44" x="961.035156"/>
       <use xlink:href="#DejaVuSans-34" x="1038.037109"/>
       <use xlink:href="#DejaVuSans-2d" x="1101.660156"/>
       <use xlink:href="#DejaVuSans-31" x="1137.744141"/>
       <use xlink:href="#DejaVuSans-20" x="1201.367188"/>
       <use xlink:href="#DejaVuSans-2b" x="1233.154297"/>
       <use xlink:href="#DejaVuSans-20" x="1316.943359"/>
       <use xlink:href="#DejaVuSans-43" x="1348.730469"/>
       <use xlink:href="#DejaVuSans-44" x="1418.554688"/>
       <use xlink:href="#DejaVuSans-34" x="1495.556641"/>
       <use xlink:href="#DejaVuSans-2d" x="1559.179688"/>
       <use xlink:href="#DejaVuSans-32" x="1595.263672"/>
       <use xlink:href="#DejaVuSans-20" x="1658.886719"/>
       <use xlink:href="#DejaVuSans-2b" x="1690.673828"/>
       <use xlink:href="#DejaVuSans-20" x="1774.462891"/>
       <use xlink:href="#DejaVuSans-54" x="1806.25"/>
      </g>
     </g>
    </g>
    <g id="xtick_7">
     <g id="line2d_7">
      <g>
       <use xlink:href="#meee7b6dc6d" x="326.786176" y="369.507896" style="stroke: #000000; stroke-width: 0.8"/>
      </g>
     </g>
     <g id="text_7">
      <!-- NK -->
      <g transform="translate(316.528267 390.277917) rotate(-45) scale(0.09 -0.09)">
       <defs>
        <path id="DejaVuSans-4e" d="M 628 4666 
L 1478 4666 
L 3547 763 
L 3547 4666 
L 4159 4666 
L 4159 0 
L 3309 0 
L 1241 3903 
L 1241 0 
L 628 0 
L 628 4666 
z
" transform="scale(0.015625)"/>
        <path id="DejaVuSans-4b" d="M 628 4666 
L 1259 4666 
L 1259 2694 
L 3353 4666 
L 4166 4666 
L 1850 2491 
L 4331 0 
L 3500 0 
L 1259 2247 
L 1259 0 
L 628 0 
L 628 4666 
z
" transform="scale(0.015625)"/>
       </defs>
       <use xlink:href="#DejaVuSans-4e"/>
       <use xlink:href="#DejaVuSans-4b" x="74.804688"/>
      </g>
     </g>
    </g>
    <g id="xtick_8">
     <g id="line2d_8">
      <g>
       <use xlink:href="#meee7b6dc6d" x="364.179232" y="369.507896" style="stroke: #000000; stroke-width: 0.8"/>
      </g>
     </g>
     <g id="text_8">
      <!-- CD57 + NK -->
      <g transform="translate(327.101204 417.098035) rotate(-45) scale(0.09 -0.09)">
       <use xlink:href="#DejaVuSans-43"/>
       <use xlink:href="#DejaVuSans-44" x="69.824219"/>
       <use xlink:href="#DejaVuSans-35" x="146.826172"/>
       <use xlink:href="#DejaVuSans-37" x="210.449219"/>
       <use xlink:href="#DejaVuSans-20" x="274.072266"/>
       <use xlink:href="#DejaVuSans-2b" x="305.859375"/>
       <use xlink:href="#DejaVuSans-20" x="389.648438"/>
       <use xlink:href="#DejaVuSans-4e" x="421.435547"/>
       <use xlink:href="#DejaVuSans-4b" x="496.240234"/>
      </g>
     </g>
    </g>
    <g id="xtick_9">
     <g id="line2d_9">
      <g>
       <use xlink:href="#meee7b6dc6d" x="401.572287" y="369.507896" style="stroke: #000000; stroke-width: 0.8"/>
      </g>
     </g>
     <g id="text_9">
      <!-- Central_memory CD4-1 + CD4-2 + T -->
      <g transform="translate(282.985839 498.429457) rotate(-45) scale(0.09 -0.09)">
       <defs>
        <path id="DejaVuSans-6e" d="M 3513 2113 
L 3513 0 
L 2938 0 
L 2938 2094 
Q 2938 2591 2744 2837 
Q 2550 3084 2163 3084 
Q 1697 3084 1428 2787 
Q 1159 2491 1159 1978 
L 1159 0 
L 581 0 
L 581 3500 
L 1159 3500 
L 1159 2956 
Q 1366 3272 1645 3428 
Q 1925 3584 2291 3584 
Q 2894 3584 3203 3211 
Q 3513 2838 3513 2113 
z
" transform="scale(0.015625)"/>
        <path id="DejaVuSans-61" d="M 2194 1759 
Q 1497 1759 1228 1600 
Q 959 1441 959 1056 
Q 959 750 1161 570 
Q 1363 391 1709 391 
Q 2188 391 2477 730 
Q 2766 1069 2766 1631 
L 2766 1759 
L 2194 1759 
z
M 3341 1997 
L 3341 0 
L 2766 0 
L 2766 531 
Q 2569 213 2275 61 
Q 1981 -91 1556 -91 
Q 1019 -91 701 211 
Q 384 513 384 1019 
Q 384 1609 779 1909 
Q 1175 2209 1959 2209 
L 2766 2209 
L 2766 2266 
Q 2766 2663 2505 2880 
Q 2244 3097 1772 3097 
Q 1472 3097 1187 3025 
Q 903 2953 641 2809 
L 641 3341 
Q 956 3463 1253 3523 
Q 1550 3584 1831 3584 
Q 2591 3584 2966 3190 
Q 3341 2797 3341 1997 
z
" transform="scale(0.015625)"/>
       </defs>
       <use xlink:href="#DejaVuSans-43"/>
       <use xlink:href="#DejaVuSans-65" x="69.824219"/>
       <use xlink:href="#DejaVuSans-6e" x="131.347656"/>
       <use xlink:href="#DejaVuSans-74" x="194.726562"/>
       <use xlink:href="#DejaVuSans-72" x="233.935547"/>
       <use xlink:href="#DejaVuSans-61" x="275.048828"/>
       <use xlink:href="#DejaVuSans-6c" x="336.328125"/>
       <use xlink:href="#DejaVuSans-5f" x="364.111328"/>
       <use xlink:href="#DejaVuSans-6d" x="414.111328"/>
       <use xlink:href="#DejaVuSans-65" x="511.523438"/>
       <use xlink:href="#DejaVuSans-6d" x="573.046875"/>
       <use xlink:href="#DejaVuSans-6f" x="670.458984"/>
       <use xlink:href="#DejaVuSans-72" x="731.640625"/>
       <use xlink:href="#DejaVuSans-79" x="772.753906"/>
       <use xlink:href="#DejaVuSans-20" x="831.933594"/>
       <use xlink:href="#DejaVuSans-43" x="863.720703"/>
       <use xlink:href="#DejaVuSans-44" x="933.544922"/>
       <use xlink:href="#DejaVuSans-34" x="1010.546875"/>
       <use xlink:href="#DejaVuSans-2d" x="1074.169922"/>
       <use xlink:href="#DejaVuSans-31" x="1110.253906"/>
       <use xlink:href="#DejaVuSans-20" x="1173.876953"/>
       <use xlink:href="#DejaVuSans-2b" x="1205.664062"/>
       <use xlink:href="#DejaVuSans-20" x="1289.453125"/>
       <use xlink:href="#DejaVuSans-43" x="1321.240234"/>
       <use xlink:href="#DejaVuSans-44" x="1391.064453"/>
       <use xlink:href="#DejaVuSans-34" x="1468.066406"/>
       <use xlink:href="#DejaVuSans-2d" x="1531.689453"/>
       <use xlink:href="#DejaVuSans-32" x="1567.773438"/>
       <use xlink:href="#DejaVuSans-20" x="1631.396484"/>
       <use xlink:href="#DejaVuSans-2b" x="1663.183594"/>
       <use xlink:href="#DejaVuSans-20" x="1746.972656"/>
       <use xlink:href="#DejaVuSans-54" x="1778.759766"/>
      </g>
     </g>
    </g>
    <g id="xtick_10">
     <g id="line2d_10">
      <g>
       <use xlink:href="#meee7b6dc6d" x="438.965342" y="369.507896" style="stroke: #000000; stroke-width: 0.8"/>
      </g>
     </g>
     <g id="text_10">
      <!-- HLA-DR - CD38-1 + CD38-2 + CD4-1 + CD4-2 + T -->
      <g transform="translate(278.547783 540.437566) rotate(-45) scale(0.09 -0.09)">
       <defs>
        <path id="DejaVuSans-48" d="M 628 4666 
L 1259 4666 
L 1259 2753 
L 3553 2753 
L 3553 4666 
L 4184 4666 
L 4184 0 
L 3553 0 
L 3553 2222 
L 1259 2222 
L 1259 0 
L 628 0 
L 628 4666 
z
" transform="scale(0.015625)"/>
        <path id="DejaVuSans-4c" d="M 628 4666 
L 1259 4666 
L 1259 531 
L 3531 531 
L 3531 0 
L 628 0 
L 628 4666 
z
" transform="scale(0.015625)"/>
        <path id="DejaVuSans-41" d="M 2188 4044 
L 1331 1722 
L 3047 1722 
L 2188 4044 
z
M 1831 4666 
L 2547 4666 
L 4325 0 
L 3669 0 
L 3244 1197 
L 1141 1197 
L 716 0 
L 50 0 
L 1831 4666 
z
" transform="scale(0.015625)"/>
        <path id="DejaVuSans-52" d="M 2841 2188 
Q 3044 2119 3236 1894 
Q 3428 1669 3622 1275 
L 4263 0 
L 3584 0 
L 2988 1197 
Q 2756 1666 2539 1819 
Q 2322 1972 1947 1972 
L 1259 1972 
L 1259 0 
L 628 0 
L 628 4666 
L 2053 4666 
Q 2853 4666 3247 4331 
Q 3641 3997 3641 3322 
Q 3641 2881 3436 2590 
Q 3231 2300 2841 2188 
z
M 1259 4147 
L 1259 2491 
L 2053 2491 
Q 2509 2491 2742 2702 
Q 2975 2913 2975 3322 
Q 2975 3731 2742 3939 
Q 2509 4147 2053 4147 
L 1259 4147 
z
" transform="scale(0.015625)"/>
        <path id="DejaVuSans-33" d="M 2597 2516 
Q 3050 2419 3304 2112 
Q 3559 1806 3559 1356 
Q 3559 666 3084 287 
Q 2609 -91 1734 -91 
Q 1441 -91 1130 -33 
Q 819 25 488 141 
L 488 750 
Q 750 597 1062 519 
Q 1375 441 1716 441 
Q 2309 441 2620 675 
Q 2931 909 2931 1356 
Q 2931 1769 2642 2001 
Q 2353 2234 1838 2234 
L 1294 2234 
L 1294 2753 
L 1863 2753 
Q 2328 2753 2575 2939 
Q 2822 3125 2822 3475 
Q 2822 3834 2567 4026 
Q 2313 4219 1838 4219 
Q 1578 4219 1281 4162 
Q 984 4106 628 3988 
L 628 4550 
Q 988 4650 1302 4700 
Q 1616 4750 1894 4750 
Q 2613 4750 3031 4423 
Q 3450 4097 3450 3541 
Q 3450 3153 3228 2886 
Q 3006 2619 2597 2516 
z
" transform="scale(0.015625)"/>
       </defs>
       <use xlink:href="#DejaVuSans-48"/>
       <use xlink:href="#DejaVuSans-4c" x="75.195312"/>
       <use xlink:href="#DejaVuSans-41" x="133.158203"/>
       <use xlink:href="#DejaVuSans-2d" x="199.316406"/>
       <use xlink:href="#DejaVuSans-44" x="235.400391"/>
       <use xlink:href="#DejaVuSans-52" x="312.402344"/>
       <use xlink:href="#DejaVuSans-20" x="381.884766"/>
       <use xlink:href="#DejaVuSans-2d" x="413.671875"/>
       <use xlink:href="#DejaVuSans-20" x="449.755859"/>
       <use xlink:href="#DejaVuSans-43" x="481.542969"/>
       <use xlink:href="#DejaVuSans-44" x="551.367188"/>
       <use xlink:href="#DejaVuSans-33" x="628.369141"/>
       <use xlink:href="#DejaVuSans-38" x="691.992188"/>
       <use xlink:href="#DejaVuSans-2d" x="755.615234"/>
       <use xlink:href="#DejaVuSans-31" x="791.699219"/>
       <use xlink:href="#DejaVuSans-20" x="855.322266"/>
       <use xlink:href="#DejaVuSans-2b" x="887.109375"/>
       <use xlink:href="#DejaVuSans-20" x="970.898438"/>
       <use xlink:href="#DejaVuSans-43" x="1002.685547"/>
       <use xlink:href="#DejaVuSans-44" x="1072.509766"/>
       <use xlink:href="#DejaVuSans-33" x="1149.511719"/>
       <use xlink:href="#DejaVuSans-38" x="1213.134766"/>
       <use xlink:href="#DejaVuSans-2d" x="1276.757812"/>
       <use xlink:href="#DejaVuSans-32" x="1312.841797"/>
       <use xlink:href="#DejaVuSans-20" x="1376.464844"/>
       <use xlink:href="#DejaVuSans-2b" x="1408.251953"/>
       <use xlink:href="#DejaVuSans-20" x="1492.041016"/>
       <use xlink:href="#DejaVuSans-43" x="1523.828125"/>
       <use xlink:href="#DejaVuSans-44" x="1593.652344"/>
       <use xlink:href="#DejaVuSans-34" x="1670.654297"/>
       <use xlink:href="#DejaVuSans-2d" x="1734.277344"/>
       <use xlink:href="#DejaVuSans-31" x="1770.361328"/>
       <use xlink:href="#DejaVuSans-20" x="1833.984375"/>
       <use xlink:href="#DejaVuSans-2b" x="1865.771484"/>
       <use xlink:href="#DejaVuSans-20" x="1949.560547"/>
       <use xlink:href="#DejaVuSans-43" x="1981.347656"/>
       <use xlink:href="#DejaVuSans-44" x="2051.171875"/>
       <use xlink:href="#DejaVuSans-34" x="2128.173828"/>
       <use xlink:href="#DejaVuSans-2d" x="2191.796875"/>
       <use xlink:href="#DejaVuSans-32" x="2227.880859"/>
       <use xlink:href="#DejaVuSans-20" x="2291.503906"/>
       <use xlink:href="#DejaVuSans-2b" x="2323.291016"/>
       <use xlink:href="#DejaVuSans-20" x="2407.080078"/>
       <use xlink:href="#DejaVuSans-54" x="2438.867188"/>
      </g>
     </g>
    </g>
    <g id="xtick_11">
     <g id="line2d_11">
      <g>
       <use xlink:href="#meee7b6dc6d" x="476.358397" y="369.507896" style="stroke: #000000; stroke-width: 0.8"/>
      </g>
     </g>
     <g id="text_11">
      <!-- T -->
      <g transform="translate(471.147904 385.2305) rotate(-45) scale(0.09 -0.09)">
       <use xlink:href="#DejaVuSans-54"/>
      </g>
     </g>
    </g>
    <g id="xtick_12">
     <g id="line2d_12">
      <g>
       <use xlink:href="#meee7b6dc6d" x="513.751452" y="369.507896" style="stroke: #000000; stroke-width: 0.8"/>
      </g>
     </g>
     <g id="text_12">
      <!-- CD161 + NK -->
      <g transform="translate(472.624354 421.147105) rotate(-45) scale(0.09 -0.09)">
       <defs>
        <path id="DejaVuSans-36" d="M 2113 2584 
Q 1688 2584 1439 2293 
Q 1191 2003 1191 1497 
Q 1191 994 1439 701 
Q 1688 409 2113 409 
Q 2538 409 2786 701 
Q 3034 994 3034 1497 
Q 3034 2003 2786 2293 
Q 2538 2584 2113 2584 
z
M 3366 4563 
L 3366 3988 
Q 3128 4100 2886 4159 
Q 2644 4219 2406 4219 
Q 1781 4219 1451 3797 
Q 1122 3375 1075 2522 
Q 1259 2794 1537 2939 
Q 1816 3084 2150 3084 
Q 2853 3084 3261 2657 
Q 3669 2231 3669 1497 
Q 3669 778 3244 343 
Q 2819 -91 2113 -91 
Q 1303 -91 875 529 
Q 447 1150 447 2328 
Q 447 3434 972 4092 
Q 1497 4750 2381 4750 
Q 2619 4750 2861 4703 
Q 3103 4656 3366 4563 
z
" transform="scale(0.015625)"/>
       </defs>
       <use xlink:href="#DejaVuSans-43"/>
       <use xlink:href="#DejaVuSans-44" x="69.824219"/>
       <use xlink:href="#DejaVuSans-31" x="146.826172"/>
       <use xlink:href="#DejaVuSans-36" x="210.449219"/>
       <use xlink:href="#DejaVuSans-31" x="274.072266"/>
       <use xlink:href="#DejaVuSans-20" x="337.695312"/>
       <use xlink:href="#DejaVuSans-2b" x="369.482422"/>
       <use xlink:href="#DejaVuSans-20" x="453.271484"/>
       <use xlink:href="#DejaVuSans-4e" x="485.058594"/>
       <use xlink:href="#DejaVuSans-4b" x="559.863281"/>
      </g>
     </g>
    </g>
    <g id="xtick_13">
     <g id="line2d_13">
      <g>
       <use xlink:href="#meee7b6dc6d" x="551.144508" y="369.507896" style="stroke: #000000; stroke-width: 0.8"/>
      </g>
     </g>
     <g id="text_13">
      <!-- CD8 + T -->
      <g transform="translate(523.162966 408.001548) rotate(-45) scale(0.09 -0.09)">
       <use xlink:href="#DejaVuSans-43"/>
       <use xlink:href="#DejaVuSans-44" x="69.824219"/>
       <use xlink:href="#DejaVuSans-38" x="146.826172"/>
       <use xlink:href="#DejaVuSans-20" x="210.449219"/>
       <use xlink:href="#DejaVuSans-2b" x="242.236328"/>
       <use xlink:href="#DejaVuSans-20" x="326.025391"/>
       <use xlink:href="#DejaVuSans-54" x="357.8125"/>
      </g>
     </g>
    </g>
    <g id="xtick_14">
     <g id="line2d_14">
      <g>
       <use xlink:href="#meee7b6dc6d" x="588.537563" y="369.507896" style="stroke: #000000; stroke-width: 0.8"/>
      </g>
     </g>
     <g id="text_14">
      <!-- Plasmablast -->
      <g transform="translate(548.776728 419.780843) rotate(-45) scale(0.09 -0.09)">
       <defs>
        <path id="DejaVuSans-50" d="M 1259 4147 
L 1259 2394 
L 2053 2394 
Q 2494 2394 2734 2622 
Q 2975 2850 2975 3272 
Q 2975 3691 2734 3919 
Q 2494 4147 2053 4147 
L 1259 4147 
z
M 628 4666 
L 2053 4666 
Q 2838 4666 3239 4311 
Q 3641 3956 3641 3272 
Q 3641 2581 3239 2228 
Q 2838 1875 2053 1875 
L 1259 1875 
L 1259 0 
L 628 0 
L 628 4666 
z
" transform="scale(0.015625)"/>
        <path id="DejaVuSans-62" d="M 3116 1747 
Q 3116 2381 2855 2742 
Q 2594 3103 2138 3103 
Q 1681 3103 1420 2742 
Q 1159 2381 1159 1747 
Q 1159 1113 1420 752 
Q 1681 391 2138 391 
Q 2594 391 2855 752 
Q 3116 1113 3116 1747 
z
M 1159 2969 
Q 1341 3281 1617 3432 
Q 1894 3584 2278 3584 
Q 2916 3584 3314 3078 
Q 3713 2572 3713 1747 
Q 3713 922 3314 415 
Q 2916 -91 2278 -91 
Q 1894 -91 1617 61 
Q 1341 213 1159 525 
L 1159 0 
L 581 0 
L 581 4863 
L 1159 4863 
L 1159 2969 
z
" transform="scale(0.015625)"/>
       </defs>
       <use xlink:href="#DejaVuSans-50"/>
       <use xlink:href="#DejaVuSans-6c" x="60.302734"/>
       <use xlink:href="#DejaVuSans-61" x="88.085938"/>
       <use xlink:href="#DejaVuSans-73" x="149.365234"/>
       <use xlink:href="#DejaVuSans-6d" x="201.464844"/>
       <use xlink:href="#DejaVuSans-61" x="298.876953"/>
       <use xlink:href="#DejaVuSans-62" x="360.15625"/>
       <use xlink:href="#DejaVuSans-6c" x="423.632812"/>
       <use xlink:href="#DejaVuSans-61" x="451.416016"/>
       <use xlink:href="#DejaVuSans-73" x="512.695312"/>
       <use xlink:href="#DejaVuSans-74" x="564.794922"/>
      </g>
     </g>
    </g>
    <g id="xtick_15">
     <g id="line2d_15">
      <g>
       <use xlink:href="#meee7b6dc6d" x="625.930618" y="369.507896" style="stroke: #000000; stroke-width: 0.8"/>
      </g>
     </g>
     <g id="text_15">
      <!-- Naive CD4-1 + CD4-2 + T -->
      <g transform="translate(542.353911 463.596714) rotate(-45) scale(0.09 -0.09)">
       <defs>
        <path id="DejaVuSans-69" d="M 603 3500 
L 1178 3500 
L 1178 0 
L 603 0 
L 603 3500 
z
M 603 4863 
L 1178 4863 
L 1178 4134 
L 603 4134 
L 603 4863 
z
" transform="scale(0.015625)"/>
        <path id="DejaVuSans-76" d="M 191 3500 
L 800 3500 
L 1894 563 
L 2988 3500 
L 3597 3500 
L 2284 0 
L 1503 0 
L 191 3500 
z
" transform="scale(0.015625)"/>
       </defs>
       <use xlink:href="#DejaVuSans-4e"/>
       <use xlink:href="#DejaVuSans-61" x="74.804688"/>
       <use xlink:href="#DejaVuSans-69" x="136.083984"/>
       <use xlink:href="#DejaVuSans-76" x="163.867188"/>
       <use xlink:href="#DejaVuSans-65" x="223.046875"/>
       <use xlink:href="#DejaVuSans-20" x="284.570312"/>
       <use xlink:href="#DejaVuSans-43" x="316.357422"/>
       <use xlink:href="#DejaVuSans-44" x="386.181641"/>
       <use xlink:href="#DejaVuSans-34" x="463.183594"/>
       <use xlink:href="#DejaVuSans-2d" x="526.806641"/>
       <use xlink:href="#DejaVuSans-31" x="562.890625"/>
       <use xlink:href="#DejaVuSans-20" x="626.513672"/>
       <use xlink:href="#DejaVuSans-2b" x="658.300781"/>
       <use xlink:href="#DejaVuSans-20" x="742.089844"/>
       <use xlink:href="#DejaVuSans-43" x="773.876953"/>
       <use xlink:href="#DejaVuSans-44" x="843.701172"/>
       <use xlink:href="#DejaVuSans-34" x="920.703125"/>
       <use xlink:href="#DejaVuSans-2d" x="984.326172"/>
       <use xlink:href="#DejaVuSans-32" x="1020.410156"/>
       <use xlink:href="#DejaVuSans-20" x="1084.033203"/>
       <use xlink:href="#DejaVuSans-2b" x="1115.820312"/>
       <use xlink:href="#DejaVuSans-20" x="1199.609375"/>
       <use xlink:href="#DejaVuSans-54" x="1231.396484"/>
      </g>
     </g>
    </g>
    <g id="xtick_16">
     <g id="line2d_16">
      <g>
       <use xlink:href="#meee7b6dc6d" x="663.323673" y="369.507896" style="stroke: #000000; stroke-width: 0.8"/>
      </g>
     </g>
     <g id="text_16">
      <!-- B -->
      <g transform="translate(657.633894 385.709786) rotate(-45) scale(0.09 -0.09)">
       <defs>
        <path id="DejaVuSans-42" d="M 1259 2228 
L 1259 519 
L 2272 519 
Q 2781 519 3026 730 
Q 3272 941 3272 1375 
Q 3272 1813 3026 2020 
Q 2781 2228 2272 2228 
L 1259 2228 
z
M 1259 4147 
L 1259 2741 
L 2194 2741 
Q 2656 2741 2882 2914 
Q 3109 3088 3109 3444 
Q 3109 3797 2882 3972 
Q 2656 4147 2194 4147 
L 1259 4147 
z
M 628 4666 
L 2241 4666 
Q 2963 4666 3353 4366 
Q 3744 4066 3744 3513 
Q 3744 3084 3544 2831 
Q 3344 2578 2956 2516 
Q 3422 2416 3680 2098 
Q 3938 1781 3938 1306 
Q 3938 681 3513 340 
Q 3088 0 2303 0 
L 628 0 
L 628 4666 
z
" transform="scale(0.015625)"/>
       </defs>
       <use xlink:href="#DejaVuSans-42"/>
      </g>
     </g>
    </g>
    <g id="xtick_17">
     <g id="line2d_17">
      <g>
       <use xlink:href="#meee7b6dc6d" x="700.716728" y="369.507896" style="stroke: #000000; stroke-width: 0.8"/>
      </g>
     </g>
     <g id="text_17">
      <!-- CD27 + CD8 + T -->
      <g transform="translate(645.915069 434.821667) rotate(-45) scale(0.09 -0.09)">
       <use xlink:href="#DejaVuSans-43"/>
       <use xlink:href="#DejaVuSans-44" x="69.824219"/>
       <use xlink:href="#DejaVuSans-32" x="146.826172"/>
       <use xlink:href="#DejaVuSans-37" x="210.449219"/>
       <use xlink:href="#DejaVuSans-20" x="274.072266"/>
       <use xlink:href="#DejaVuSans-2b" x="305.859375"/>
       <use xlink:href="#DejaVuSans-20" x="389.648438"/>
       <use xlink:href="#DejaVuSans-43" x="421.435547"/>
       <use xlink:href="#DejaVuSans-44" x="491.259766"/>
       <use xlink:href="#DejaVuSans-38" x="568.261719"/>
       <use xlink:href="#DejaVuSans-20" x="631.884766"/>
       <use xlink:href="#DejaVuSans-2b" x="663.671875"/>
       <use xlink:href="#DejaVuSans-20" x="747.460938"/>
       <use xlink:href="#DejaVuSans-54" x="779.248047"/>
      </g>
     </g>
    </g>
    <g id="xtick_18">
     <g id="line2d_18">
      <g>
       <use xlink:href="#meee7b6dc6d" x="738.109784" y="369.507896" style="stroke: #000000; stroke-width: 0.8"/>
      </g>
     </g>
     <g id="text_18">
      <!-- CD161 - CD45RA + CD4-1 + CD4-2 + Treg_cells -->
      <g transform="translate(584.378361 533.574432) rotate(-45) scale(0.09 -0.09)">
       <use xlink:href="#DejaVuSans-43"/>
       <use xlink:href="#DejaVuSans-44" x="69.824219"/>
       <use xlink:href="#DejaVuSans-31" x="146.826172"/>
       <use xlink:href="#DejaVuSans-36" x="210.449219"/>
       <use xlink:href="#DejaVuSans-31" x="274.072266"/>
       <use xlink:href="#DejaVuSans-20" x="337.695312"/>
       <use xlink:href="#DejaVuSans-2d" x="369.482422"/>
       <use xlink:href="#DejaVuSans-20" x="405.566406"/>
       <use xlink:href="#DejaVuSans-43" x="437.353516"/>
       <use xlink:href="#DejaVuSans-44" x="507.177734"/>
       <use xlink:href="#DejaVuSans-34" x="584.179688"/>
       <use xlink:href="#DejaVuSans-35" x="647.802734"/>
       <use xlink:href="#DejaVuSans-52" x="711.425781"/>
       <use xlink:href="#DejaVuSans-41" x="776.908203"/>
       <use xlink:href="#DejaVuSans-20" x="845.316406"/>
       <use xlink:href="#DejaVuSans-2b" x="877.103516"/>
       <use xlink:href="#DejaVuSans-20" x="960.892578"/>
       <use xlink:href="#DejaVuSans-43" x="992.679688"/>
       <use xlink:href="#DejaVuSans-44" x="1062.503906"/>
       <use xlink:href="#DejaVuSans-34" x="1139.505859"/>
       <use xlink:href="#DejaVuSans-2d" x="1203.128906"/>
       <use xlink:href="#DejaVuSans-31" x="1239.212891"/>
       <use xlink:href="#DejaVuSans-20" x="1302.835938"/>
       <use xlink:href="#DejaVuSans-2b" x="1334.623047"/>
       <use xlink:href="#DejaVuSans-20" x="1418.412109"/>
       <use xlink:href="#DejaVuSans-43" x="1450.199219"/>
       <use xlink:href="#DejaVuSans-44" x="1520.023438"/>
       <use xlink:href="#DejaVuSans-34" x="1597.025391"/>
       <use xlink:href="#DejaVuSans-2d" x="1660.648438"/>
       <use xlink:href="#DejaVuSans-32" x="1696.732422"/>
       <use xlink:href="#DejaVuSans-20" x="1760.355469"/>
       <use xlink:href="#DejaVuSans-2b" x="1792.142578"/>
       <use xlink:href="#DejaVuSans-20" x="1875.931641"/>
       <use xlink:href="#DejaVuSans-54" x="1907.71875"/>
       <use xlink:href="#DejaVuSans-72" x="1954.052734"/>
       <use xlink:href="#DejaVuSans-65" x="1992.916016"/>
       <use xlink:href="#DejaVuSans-67" x="2054.439453"/>
       <use xlink:href="#DejaVuSans-5f" x="2117.916016"/>
       <use xlink:href="#DejaVuSans-63" x="2167.916016"/>
       <use xlink:href="#DejaVuSans-65" x="2222.896484"/>
       <use xlink:href="#DejaVuSans-6c" x="2284.419922"/>
       <use xlink:href="#DejaVuSans-6c" x="2312.203125"/>
       <use xlink:href="#DejaVuSans-73" x="2339.986328"/>
      </g>
     </g>
    </g>
    <g id="xtick_19">
     <g id="line2d_19">
      <g>
       <use xlink:href="#meee7b6dc6d" x="775.502839" y="369.507896" style="stroke: #000000; stroke-width: 0.8"/>
      </g>
     </g>
     <g id="text_19">
      <!-- CD185 + CD4-1 + CD4-2 + T -->
      <g transform="translate(681.190925 474.331921) rotate(-45) scale(0.09 -0.09)">
       <use xlink:href="#DejaVuSans-43"/>
       <use xlink:href="#DejaVuSans-44" x="69.824219"/>
       <use xlink:href="#DejaVuSans-31" x="146.826172"/>
       <use xlink:href="#DejaVuSans-38" x="210.449219"/>
       <use xlink:href="#DejaVuSans-35" x="274.072266"/>
       <use xlink:href="#DejaVuSans-20" x="337.695312"/>
       <use xlink:href="#DejaVuSans-2b" x="369.482422"/>
       <use xlink:href="#DejaVuSans-20" x="453.271484"/>
       <use xlink:href="#DejaVuSans-43" x="485.058594"/>
       <use xlink:href="#DejaVuSans-44" x="554.882812"/>
       <use xlink:href="#DejaVuSans-34" x="631.884766"/>
       <use xlink:href="#DejaVuSans-2d" x="695.507812"/>
       <use xlink:href="#DejaVuSans-31" x="731.591797"/>
       <use xlink:href="#DejaVuSans-20" x="795.214844"/>
       <use xlink:href="#DejaVuSans-2b" x="827.001953"/>
       <use xlink:href="#DejaVuSans-20" x="910.791016"/>
       <use xlink:href="#DejaVuSans-43" x="942.578125"/>
       <use xlink:href="#DejaVuSans-44" x="1012.402344"/>
       <use xlink:href="#DejaVuSans-34" x="1089.404297"/>
       <use xlink:href="#DejaVuSans-2d" x="1153.027344"/>
       <use xlink:href="#DejaVuSans-32" x="1189.111328"/>
       <use xlink:href="#DejaVuSans-20" x="1252.734375"/>
       <use xlink:href="#DejaVuSans-2b" x="1284.521484"/>
       <use xlink:href="#DejaVuSans-20" x="1368.310547"/>
       <use xlink:href="#DejaVuSans-54" x="1400.097656"/>
      </g>
     </g>
    </g>
    <g id="xtick_20">
     <g id="line2d_20">
      <g>
       <use xlink:href="#meee7b6dc6d" x="812.895894" y="369.507896" style="stroke: #000000; stroke-width: 0.8"/>
      </g>
     </g>
     <g id="text_20">
      <!-- Naive CD8 + T -->
      <g transform="translate(764.780371 428.13553) rotate(-45) scale(0.09 -0.09)">
       <use xlink:href="#DejaVuSans-4e"/>
       <use xlink:href="#DejaVuSans-61" x="74.804688"/>
       <use xlink:href="#DejaVuSans-69" x="136.083984"/>
       <use xlink:href="#DejaVuSans-76" x="163.867188"/>
       <use xlink:href="#DejaVuSans-65" x="223.046875"/>
       <use xlink:href="#DejaVuSans-20" x="284.570312"/>
       <use xlink:href="#DejaVuSans-43" x="316.357422"/>
       <use xlink:href="#DejaVuSans-44" x="386.181641"/>
       <use xlink:href="#DejaVuSans-38" x="463.183594"/>
       <use xlink:href="#DejaVuSans-20" x="526.806641"/>
       <use xlink:href="#DejaVuSans-2b" x="558.59375"/>
       <use xlink:href="#DejaVuSans-20" x="642.382812"/>
       <use xlink:href="#DejaVuSans-54" x="674.169922"/>
      </g>
     </g>
    </g>
    <g id="text_21">
     <!-- Cell type -->
     <g transform="translate(420.49125 557.918571) scale(0.16 -0.16)">
      <defs>
       <path id="DejaVuSans-70" d="M 1159 525 
L 1159 -1331 
L 581 -1331 
L 581 3500 
L 1159 3500 
L 1159 2969 
Q 1341 3281 1617 3432 
Q 1894 3584 2278 3584 
Q 2916 3584 3314 3078 
Q 3713 2572 3713 1747 
Q 3713 922 3314 415 
Q 2916 -91 2278 -91 
Q 1894 -91 1617 61 
Q 1341 213 1159 525 
z
M 3116 1747 
Q 3116 2381 2855 2742 
Q 2594 3103 2138 3103 
Q 1681 3103 1420 2742 
Q 1159 2381 1159 1747 
Q 1159 1113 1420 752 
Q 1681 391 2138 391 
Q 2594 391 2855 752 
Q 3116 1113 3116 1747 
z
" transform="scale(0.015625)"/>
      </defs>
      <use xlink:href="#DejaVuSans-43"/>
      <use xlink:href="#DejaVuSans-65" x="69.824219"/>
      <use xlink:href="#DejaVuSans-6c" x="131.347656"/>
      <use xlink:href="#DejaVuSans-6c" x="159.130859"/>
      <use xlink:href="#DejaVuSans-20" x="186.914062"/>
      <use xlink:href="#DejaVuSans-74" x="218.701172"/>
      <use xlink:href="#DejaVuSans-79" x="257.910156"/>
      <use xlink:href="#DejaVuSans-70" x="317.089844"/>
      <use xlink:href="#DejaVuSans-65" x="380.566406"/>
     </g>
    </g>
   </g>
   <g id="matplotlib.axis_2">
    <g id="ytick_1">
     <g id="line2d_21">
      <defs>
       <path id="m60cd164a36" d="M 0 0 
L -3.5 0 
" style="stroke: #000000; stroke-width: 0.8"/>
      </defs>
      <g>
       <use xlink:href="#m60cd164a36" x="62.84" y="354.289415" style="stroke: #000000; stroke-width: 0.8"/>
      </g>
     </g>
     <g id="text_22">
      <!-- 0.0 -->
      <g transform="translate(33.575625 359.608322) scale(0.14 -0.14)">
       <defs>
        <path id="DejaVuSans-30" d="M 2034 4250 
Q 1547 4250 1301 3770 
Q 1056 3291 1056 2328 
Q 1056 1369 1301 889 
Q 1547 409 2034 409 
Q 2525 409 2770 889 
Q 3016 1369 3016 2328 
Q 3016 3291 2770 3770 
Q 2525 4250 2034 4250 
z
M 2034 4750 
Q 2819 4750 3233 4129 
Q 3647 3509 3647 2328 
Q 3647 1150 3233 529 
Q 2819 -91 2034 -91 
Q 1250 -91 836 529 
Q 422 1150 422 2328 
Q 422 3509 836 4129 
Q 1250 4750 2034 4750 
z
" transform="scale(0.015625)"/>
        <path id="DejaVuSans-2e" d="M 684 794 
L 1344 794 
L 1344 0 
L 684 0 
L 684 794 
z
" transform="scale(0.015625)"/>
       </defs>
       <use xlink:href="#DejaVuSans-30"/>
       <use xlink:href="#DejaVuSans-2e" x="63.623047"/>
       <use xlink:href="#DejaVuSans-30" x="95.410156"/>
      </g>
     </g>
    </g>
    <g id="ytick_2">
     <g id="line2d_22">
      <g>
       <use xlink:href="#m60cd164a36" x="62.84" y="292.691457" style="stroke: #000000; stroke-width: 0.8"/>
      </g>
     </g>
     <g id="text_23">
      <!-- 0.1 -->
      <g transform="translate(33.575625 298.010363) scale(0.14 -0.14)">
       <use xlink:href="#DejaVuSans-30"/>
       <use xlink:href="#DejaVuSans-2e" x="63.623047"/>
       <use xlink:href="#DejaVuSans-31" x="95.410156"/>
      </g>
     </g>
    </g>
    <g id="ytick_3">
     <g id="line2d_23">
      <g>
       <use xlink:href="#m60cd164a36" x="62.84" y="231.093498" style="stroke: #000000; stroke-width: 0.8"/>
      </g>
     </g>
     <g id="text_24">
      <!-- 0.2 -->
      <g transform="translate(33.575625 236.412405) scale(0.14 -0.14)">
       <use xlink:href="#DejaVuSans-30"/>
       <use xlink:href="#DejaVuSans-2e" x="63.623047"/>
       <use xlink:href="#DejaVuSans-32" x="95.410156"/>
      </g>
     </g>
    </g>
    <g id="ytick_4">
     <g id="line2d_24">
      <g>
       <use xlink:href="#m60cd164a36" x="62.84" y="169.49554" style="stroke: #000000; stroke-width: 0.8"/>
      </g>
     </g>
     <g id="text_25">
      <!-- 0.3 -->
      <g transform="translate(33.575625 174.814446) scale(0.14 -0.14)">
       <use xlink:href="#DejaVuSans-30"/>
       <use xlink:href="#DejaVuSans-2e" x="63.623047"/>
       <use xlink:href="#DejaVuSans-33" x="95.410156"/>
      </g>
     </g>
    </g>
    <g id="ytick_5">
     <g id="line2d_25">
      <g>
       <use xlink:href="#m60cd164a36" x="62.84" y="107.897581" style="stroke: #000000; stroke-width: 0.8"/>
      </g>
     </g>
     <g id="text_26">
      <!-- 0.4 -->
      <g transform="translate(33.575625 113.216488) scale(0.14 -0.14)">
       <use xlink:href="#DejaVuSans-30"/>
       <use xlink:href="#DejaVuSans-2e" x="63.623047"/>
       <use xlink:href="#DejaVuSans-34" x="95.410156"/>
      </g>
     </g>
    </g>
    <g id="ytick_6">
     <g id="line2d_26">
      <g>
       <use xlink:href="#m60cd164a36" x="62.84" y="46.299623" style="stroke: #000000; stroke-width: 0.8"/>
      </g>
     </g>
     <g id="text_27">
      <!-- 0.5 -->
      <g transform="translate(33.575625 51.618529) scale(0.14 -0.14)">
       <use xlink:href="#DejaVuSans-30"/>
       <use xlink:href="#DejaVuSans-2e" x="63.623047"/>
       <use xlink:href="#DejaVuSans-35" x="95.410156"/>
      </g>
     </g>
    </g>
    <g id="text_28">
     <!-- Count frequency -->
     <g transform="translate(26.248125 268.216448) rotate(-90) scale(0.16 -0.16)">
      <defs>
       <path id="DejaVuSans-75" d="M 544 1381 
L 544 3500 
L 1119 3500 
L 1119 1403 
Q 1119 906 1312 657 
Q 1506 409 1894 409 
Q 2359 409 2629 706 
Q 2900 1003 2900 1516 
L 2900 3500 
L 3475 3500 
L 3475 0 
L 2900 0 
L 2900 538 
Q 2691 219 2414 64 
Q 2138 -91 1772 -91 
Q 1169 -91 856 284 
Q 544 659 544 1381 
z
M 1991 3584 
L 1991 3584 
z
" transform="scale(0.015625)"/>
       <path id="DejaVuSans-71" d="M 947 1747 
Q 947 1113 1208 752 
Q 1469 391 1925 391 
Q 2381 391 2643 752 
Q 2906 1113 2906 1747 
Q 2906 2381 2643 2742 
Q 2381 3103 1925 3103 
Q 1469 3103 1208 2742 
Q 947 2381 947 1747 
z
M 2906 525 
Q 2725 213 2448 61 
Q 2172 -91 1784 -91 
Q 1150 -91 751 415 
Q 353 922 353 1747 
Q 353 2572 751 3078 
Q 1150 3584 1784 3584 
Q 2172 3584 2448 3432 
Q 2725 3281 2906 2969 
L 2906 3500 
L 3481 3500 
L 3481 -1331 
L 2906 -1331 
L 2906 525 
z
" transform="scale(0.015625)"/>
      </defs>
      <use xlink:href="#DejaVuSans-43"/>
      <use xlink:href="#DejaVuSans-6f" x="69.824219"/>
      <use xlink:href="#DejaVuSans-75" x="131.005859"/>
      <use xlink:href="#DejaVuSans-6e" x="194.384766"/>
      <use xlink:href="#DejaVuSans-74" x="257.763672"/>
      <use xlink:href="#DejaVuSans-20" x="296.972656"/>
      <use xlink:href="#DejaVuSans-66" x="328.759766"/>
      <use xlink:href="#DejaVuSans-72" x="363.964844"/>
      <use xlink:href="#DejaVuSans-65" x="402.828125"/>
      <use xlink:href="#DejaVuSans-71" x="464.351562"/>
      <use xlink:href="#DejaVuSans-75" x="527.828125"/>
      <use xlink:href="#DejaVuSans-65" x="591.207031"/>
      <use xlink:href="#DejaVuSans-6e" x="652.730469"/>
      <use xlink:href="#DejaVuSans-63" x="716.109375"/>
      <use xlink:href="#DejaVuSans-79" x="771.089844"/>
     </g>
    </g>
   </g>
   <g id="line2d_27"/>
   <g id="line2d_28"/>
   <g id="line2d_29"/>
   <g id="line2d_30"/>
   <g id="line2d_31"/>
   <g id="patch_3">
    <path d="M 62.84 369.507896 
L 848.88 369.507896 
" style="fill: none; stroke: #000000; stroke-width: 0.8; stroke-linejoin: miter; stroke-linecap: square"/>
   </g>
   <g id="text_29">
    <!-- Swarm Plot of Immune Cell Counts per Donor -->
    <g transform="translate(265.246938 28.08) scale(0.168 -0.168)">
     <defs>
      <path id="DejaVuSans-53" d="M 3425 4513 
L 3425 3897 
Q 3066 4069 2747 4153 
Q 2428 4238 2131 4238 
Q 1616 4238 1336 4038 
Q 1056 3838 1056 3469 
Q 1056 3159 1242 3001 
Q 1428 2844 1947 2747 
L 2328 2669 
Q 3034 2534 3370 2195 
Q 3706 1856 3706 1288 
Q 3706 609 3251 259 
Q 2797 -91 1919 -91 
Q 1588 -91 1214 -16 
Q 841 59 441 206 
L 441 856 
Q 825 641 1194 531 
Q 1563 422 1919 422 
Q 2459 422 2753 634 
Q 3047 847 3047 1241 
Q 3047 1584 2836 1778 
Q 2625 1972 2144 2069 
L 1759 2144 
Q 1053 2284 737 2584 
Q 422 2884 422 3419 
Q 422 4038 858 4394 
Q 1294 4750 2059 4750 
Q 2388 4750 2728 4690 
Q 3069 4631 3425 4513 
z
" transform="scale(0.015625)"/>
      <path id="DejaVuSans-77" d="M 269 3500 
L 844 3500 
L 1563 769 
L 2278 3500 
L 2956 3500 
L 3675 769 
L 4391 3500 
L 4966 3500 
L 4050 0 
L 3372 0 
L 2619 2869 
L 1863 0 
L 1184 0 
L 269 3500 
z
" transform="scale(0.015625)"/>
      <path id="DejaVuSans-49" d="M 628 4666 
L 1259 4666 
L 1259 0 
L 628 0 
L 628 4666 
z
" transform="scale(0.015625)"/>
     </defs>
     <use xlink:href="#DejaVuSans-53"/>
     <use xlink:href="#DejaVuSans-77" x="63.476562"/>
     <use xlink:href="#DejaVuSans-61" x="145.263672"/>
     <use xlink:href="#DejaVuSans-72" x="206.542969"/>
     <use xlink:href="#DejaVuSans-6d" x="245.90625"/>
     <use xlink:href="#DejaVuSans-20" x="343.318359"/>
     <use xlink:href="#DejaVuSans-50" x="375.105469"/>
     <use xlink:href="#DejaVuSans-6c" x="435.408203"/>
     <use xlink:href="#DejaVuSans-6f" x="463.191406"/>
     <use xlink:href="#DejaVuSans-74" x="524.373047"/>
     <use xlink:href="#DejaVuSans-20" x="563.582031"/>
     <use xlink:href="#DejaVuSans-6f" x="595.369141"/>
     <use xlink:href="#DejaVuSans-66" x="656.550781"/>
     <use xlink:href="#DejaVuSans-20" x="691.755859"/>
     <use xlink:href="#DejaVuSans-49" x="723.542969"/>
     <use xlink:href="#DejaVuSans-6d" x="753.035156"/>
     <use xlink:href="#DejaVuSans-6d" x="850.447266"/>
     <use xlink:href="#DejaVuSans-75" x="947.859375"/>
     <use xlink:href="#DejaVuSans-6e" x="1011.238281"/>
     <use xlink:href="#DejaVuSans-65" x="1074.617188"/>
     <use xlink:href="#DejaVuSans-20" x="1136.140625"/>
     <use xlink:href="#DejaVuSans-43" x="1167.927734"/>
     <use xlink:href="#DejaVuSans-65" x="1237.751953"/>
     <use xlink:href="#DejaVuSans-6c" x="1299.275391"/>
     <use xlink:href="#DejaVuSans-6c" x="1327.058594"/>
     <use xlink:href="#DejaVuSans-20" x="1354.841797"/>
     <use xlink:href="#DejaVuSans-43" x="1386.628906"/>
     <use xlink:href="#DejaVuSans-6f" x="1456.453125"/>
     <use xlink:href="#DejaVuSans-75" x="1517.634766"/>
     <use xlink:href="#DejaVuSans-6e" x="1581.013672"/>
     <use xlink:href="#DejaVuSans-74" x="1644.392578"/>
     <use xlink:href="#DejaVuSans-73" x="1683.601562"/>
     <use xlink:href="#DejaVuSans-20" x="1735.701172"/>
     <use xlink:href="#DejaVuSans-70" x="1767.488281"/>
     <use xlink:href="#DejaVuSans-65" x="1830.964844"/>
     <use xlink:href="#DejaVuSans-72" x="1892.488281"/>
     <use xlink:href="#DejaVuSans-20" x="1933.601562"/>
     <use xlink:href="#DejaVuSans-44" x="1965.388672"/>
     <use xlink:href="#DejaVuSans-6f" x="2042.390625"/>
     <use xlink:href="#DejaVuSans-6e" x="2103.572266"/>
     <use xlink:href="#DejaVuSans-6f" x="2166.951172"/>
     <use xlink:href="#DejaVuSans-72" x="2228.132812"/>
    </g>
   </g>
   <g id="legend_1">
    <g id="patch_4">
     <path d="M 776.930937 168.57625 
L 839.08 168.57625 
Q 841.88 168.57625 841.88 165.77625 
L 841.88 43.88 
Q 841.88 41.08 839.08 41.08 
L 776.930937 41.08 
Q 774.130937 41.08 774.130937 43.88 
L 774.130937 165.77625 
Q 774.130937 168.57625 776.930937 168.57625 
z
" style="fill: #ffffff; opacity: 0.8; stroke: #cccccc; stroke-linejoin: miter"/>
    </g>
    <g id="text_30">
     <!-- Donor -->
     <g transform="translate(786.735312 57.317812) scale(0.14 -0.14)">
      <use xlink:href="#DejaVuSans-44"/>
      <use xlink:href="#DejaVuSans-6f" x="77.001953"/>
      <use xlink:href="#DejaVuSans-6e" x="138.183594"/>
      <use xlink:href="#DejaVuSans-6f" x="201.5625"/>
      <use xlink:href="#DejaVuSans-72" x="262.744141"/>
     </g>
    </g>
    <g id="line2d_32">
     <defs>
      <path id="m56b61cb01d" d="M 0 -3 
L -3 3 
L 3 3 
z
" style="stroke: #ffffff; stroke-width: 0.48; stroke-linejoin: miter"/>
     </defs>
     <g>
      <use xlink:href="#m56b61cb01d" x="793.730937" y="72.967187" style="stroke: #ffffff; stroke-width: 0.48; stroke-linejoin: miter"/>
     </g>
    </g>
    <g id="text_31">
     <!-- P3 -->
     <g transform="translate(818.930938 77.867187) scale(0.14 -0.14)">
      <use xlink:href="#DejaVuSans-50"/>
      <use xlink:href="#DejaVuSans-33" x="60.302734"/>
     </g>
    </g>
    <g id="line2d_33">
     <defs>
      <path id="mc4e9031489" d="M 0 3 
C 0.795609 3 1.55874 2.683901 2.12132 2.12132 
C 2.683901 1.55874 3 0.795609 3 0 
C 3 -0.795609 2.683901 -1.55874 2.12132 -2.12132 
C 1.55874 -2.683901 0.795609 -3 0 -3 
C -0.795609 -3 -1.55874 -2.683901 -2.12132 -2.12132 
C -2.683901 -1.55874 -3 -0.795609 -3 0 
C -3 0.795609 -2.683901 1.55874 -2.12132 2.12132 
C -1.55874 2.683901 -0.795609 3 0 3 
z
" style="stroke: #ffffff; stroke-width: 0.48"/>
     </defs>
     <g>
      <use xlink:href="#mc4e9031489" x="793.730937" y="93.516562" style="stroke: #ffffff; stroke-width: 0.48"/>
     </g>
    </g>
    <g id="text_32">
     <!-- P5 -->
     <g transform="translate(818.930938 98.416562) scale(0.14 -0.14)">
      <use xlink:href="#DejaVuSans-50"/>
      <use xlink:href="#DejaVuSans-35" x="60.302734"/>
     </g>
    </g>
    <g id="line2d_34">
     <defs>
      <path id="m8ea29f5df7" d="M -3 3 
L 3 3 
L 3 -3 
L -3 -3 
z
" style="stroke: #ffffff; stroke-width: 0.48; stroke-linejoin: miter"/>
     </defs>
     <g>
      <use xlink:href="#m8ea29f5df7" x="793.730937" y="114.065937" style="stroke: #ffffff; stroke-width: 0.48; stroke-linejoin: miter"/>
     </g>
    </g>
    <g id="text_33">
     <!-- P6 -->
     <g transform="translate(818.930938 118.965937) scale(0.14 -0.14)">
      <use xlink:href="#DejaVuSans-50"/>
      <use xlink:href="#DejaVuSans-36" x="60.302734"/>
     </g>
    </g>
    <g id="line2d_35">
     <defs>
      <path id="mb7e4cb939b" d="M -0 4.242641 
L 2.545584 0 
L 0 -4.242641 
L -2.545584 -0 
z
" style="stroke: #ffffff; stroke-width: 0.48; stroke-linejoin: miter"/>
     </defs>
     <g>
      <use xlink:href="#mb7e4cb939b" x="793.730937" y="134.615312" style="stroke: #ffffff; stroke-width: 0.48; stroke-linejoin: miter"/>
     </g>
    </g>
    <g id="text_34">
     <!-- P7 -->
     <g transform="translate(818.930938 139.515312) scale(0.14 -0.14)">
      <use xlink:href="#DejaVuSans-50"/>
      <use xlink:href="#DejaVuSans-37" x="60.302734"/>
     </g>
    </g>
    <g id="line2d_36">
     <defs>
      <path id="m33fbf88e05" d="M -1.5 3 
L 0 1.5 
L 1.5 3 
L 3 1.5 
L 1.5 0 
L 3 -1.5 
L 1.5 -3 
L 0 -1.5 
L -1.5 -3 
L -3 -1.5 
L -1.5 0 
L -3 1.5 
z
" style="stroke: #ffffff; stroke-width: 0.48; stroke-linejoin: miter"/>
     </defs>
     <g>
      <use xlink:href="#m33fbf88e05" x="793.730937" y="155.164687" style="stroke: #ffffff; stroke-width: 0.48; stroke-linejoin: miter"/>
     </g>
    </g>
    <g id="text_35">
     <!-- P8 -->
     <g transform="translate(818.930938 160.064687) scale(0.14 -0.14)">
      <use xlink:href="#DejaVuSans-50"/>
      <use xlink:href="#DejaVuSans-38" x="60.302734"/>
     </g>
    </g>
   </g>
  </g>
 </g>
 <defs>
  <clipPath id="p1715200d81">
   <rect x="62.84" y="34.08" width="786.04" height="335.427896"/>
  </clipPath>
 </defs>
</svg>
